<?xml version="1.0" encoding="utf-8"?>
<!-- Generator: Adobe Illustrator 22.1.0, SVG Export Plug-In . SVG Version: 6.00 Build 0)  -->
<svg version="1.1" xmlns="http://www.w3.org/2000/svg" xmlns:xlink="http://www.w3.org/1999/xlink" x="0px" y="0px"
	 viewBox="0 0 760 520" style="enable-background:new 0 0 760 520;" xml:space="preserve">
<style type="text/css">
	.st0{fill:#E6FCFC;}
	.st1{fill:#A5CACC;}
	.st2{fill:#FFFFFF;}
	.st3{fill:#00A6F7;}
	.st4{fill:none;stroke:#A5CACC;stroke-width:3;stroke-miterlimit:10;}
	.st5{fill:none;stroke:#A5CACC;stroke-width:3;stroke-linecap:round;stroke-miterlimit:10;}
	.st6{fill:#A0D6F2;}
	.st7{fill:#E1FBFC;}
	.st8{fill:none;stroke:#E1FFFF;stroke-miterlimit:10;stroke-dasharray:4;}
	.st9{fill:none;stroke:#E1FFFF;stroke-miterlimit:10;}
	.st10{fill:none;stroke:#E1FFFF;stroke-miterlimit:10;stroke-dasharray:4.1181,4.1181;}
	.st11{fill:none;stroke:#E1FFFF;stroke-miterlimit:10;stroke-dasharray:3.7999,3.7999;}
	.st12{fill:none;stroke:#A0D6F2;stroke-miterlimit:10;}
	.st13{fill:#E2A893;}
	.st14{fill:#272525;}
	.st15{fill:url(#SVGID_1_);}
	.st16{fill:url(#SVGID_2_);}
	.st17{fill:#131533;}
	.st18{fill:#E29993;}
	.st19{fill:url(#SVGID_3_);}
	.st20{fill:url(#SVGID_4_);}
	.st21{fill:#4FAFF5;}
	.st22{fill:#FFEDE5;}
	.st23{fill:#FFE0D7;}
	.st24{fill:#C2C2C2;}
	.st25{opacity:0.2;fill:#00E7ED;}
	.st26{fill:#D1D1D1;}
	.st27{fill:url(#SVGID_5_);}
	.st28{opacity:5.000000e-02;}
	.st29{opacity:0.1;}
	.st30{fill:url(#SVGID_6_);}
	.st31{fill:url(#SVGID_7_);}
	.st32{fill:url(#SVGID_8_);}
	.st33{opacity:0.1;fill:#FFFFFF;}
	.st34{fill:url(#SVGID_9_);}
	.st35{fill:url(#SVGID_10_);}
	.st36{fill:url(#SVGID_11_);}
	.st37{fill:url(#SVGID_12_);}
	.st38{fill:url(#SVGID_13_);}
	.st39{fill:url(#SVGID_14_);}
	.st40{fill:url(#SVGID_15_);}
	.st41{fill:url(#SVGID_16_);}
	.st42{fill:url(#SVGID_17_);}
	.st43{fill:url(#SVGID_18_);}
	.st44{fill:url(#SVGID_19_);}
	.st45{fill:url(#SVGID_20_);}
	.st46{fill:url(#SVGID_21_);}
	.st47{fill:url(#SVGID_22_);}
	.st48{fill:#888888;}
	.st49{opacity:0.2;fill:#A0D6F2;}
	.st50{opacity:0.5;fill:none;stroke:#A0D6F2;stroke-width:0.4318;stroke-miterlimit:10;}
	.st51{opacity:0.3;fill:url(#SVGID_23_);}
	.st52{opacity:0.2;fill:#FFFFFF;}
	.st53{fill:#404040;}
	.st54{fill:#656565;}
	.st55{fill:#AAB7C6;}
</style>
<g id="Layer_1">
	<path class="st0" d="M118.7,85.3c8.1-10.2,18.9-18,31.2-22.4l29.1-10.4l37.8-15.8c16.9-7.1,34.3-13.1,51.9-18.2l21.7-6.2
		c34.8-9.9,71-13.9,107.1-10.9c24.9,2,50.5,7.4,67.1,19.5c0,0,135.4,87.1,176.5,144.7c3.9,5.5,7.9,10.9,12.2,16
		c9.5,11.3,26.9,36.8,32.8,77.1c4.7,32.2,0.5,65-11.3,95.3L639,445.4c-17.3,44.2-59.7,73.9-107.2,74c-0.9,0-1.9,0-2.8,0H266.6
		c0,0-95.4-3.9-133.2-52.6c-2.7-3.5-5.6-6.9-8.7-10.1c-15.6-16.4-62.5-75.2-51-177.6l19-140.2C92.6,139,97.6,111.9,118.7,85.3z"/>
	<g>
		<circle class="st1" cx="296.1" cy="63.1" r="23"/>
		<circle class="st1" cx="308.5" cy="40.5" r="10.5"/>
		<g>
			<g>
				<path class="st2" d="M292.7,79.8c-0.2,0-0.4,0-0.6-0.1c-0.5-0.2-0.7-0.5-0.9-0.7c-2.3,0.3-3.3-1.7-3.5-2.2c-3.1-1.4-3-4-3-4.7
					c-0.6-0.3-1-0.7-1.1-1.3c-0.2-0.6,0-1.2,0.2-1.5c-2-1.4-1.1-4-0.9-4.5c-1.2-3.6-0.2-5.4,0.3-6.5c0.2-0.3,0.3-0.6,0.3-0.8
					c-0.1-0.8,0.7-1.9,1.1-2.2c-0.2-0.6-0.7-2.3,1.2-3.7c1.8-1.2,2.3-2,2.3-2.2c0.2-1.3,0.9-2.3,2.1-2.8c1.3-0.5,2.9-0.4,4,0.4
					c1,0.7,1.5,2.7,1.5,3.8v28.3c0,0.1,0,0.2-0.1,0.2c-0.1,0.1-0.2,0.1-0.2,0c-0.8-0.2-1.6,0.2-1.6,0.2
					C293.4,79.8,293,79.8,292.7,79.8z M291.4,78.5c0.1,0,0.2,0.1,0.2,0.2c0.1,0.1,0.6,1.1,1.9,0.4c0,0,0.8-0.4,1.6-0.3V50.9
					c0-1.2-0.5-2.9-1.2-3.4c-0.9-0.7-2.3-0.8-3.5-0.3c-0.7,0.3-1.6,1-1.8,2.4c0,0,0,0,0,0.1c0,0.1-0.4,1-2.6,2.4
					c-1.9,1.3-1,3.1-1,3.1c0.1,0.1,0,0.2-0.1,0.3c-0.3,0.3-1.2,1.3-1.1,1.9c0.1,0.3-0.1,0.7-0.4,1.1c-0.6,1-1.5,2.8-0.3,6.2
					c0,0.1,0,0.1,0,0.2c-0.1,0.1-1.3,2.8,0.9,4.1c0.1,0,0.1,0.1,0.1,0.2c0,0.1,0,0.1,0,0.2c0,0-0.4,0.7-0.3,1.3c0.1,0.4,0.5,0.7,1,1
					c0.1,0.1,0.2,0.2,0.2,0.3c0,0.1-0.6,2.9,2.7,4.4c0.1,0,0.1,0.1,0.1,0.2C288.2,76.7,289,78.9,291.4,78.5
					C291.3,78.5,291.4,78.5,291.4,78.5z"/>
			</g>
			<g>
				<path class="st2" d="M291.8,53.6c-1.4,0-2.4-0.4-3-1.1c-1-1.2-0.7-2.9-0.6-3c0-0.1,0.2-0.2,0.3-0.2c0.1,0,0.2,0.2,0.2,0.3
					c0,0-0.3,1.5,0.5,2.5c0.6,0.7,1.5,1,2.9,0.9c0.1,0,0.3,0.1,0.3,0.3c0,0.1-0.1,0.3-0.3,0.3C292,53.6,291.9,53.6,291.8,53.6z"/>
			</g>
			<g>
				<path class="st2" d="M292.9,53.3c0,0.4-0.4,0.8-0.8,0.8c-0.4,0-0.8-0.4-0.8-0.8s0.4-0.8,0.8-0.8
					C292.6,52.5,292.9,52.9,292.9,53.3z"/>
			</g>
			<g>
				<path class="st2" d="M290.8,58c-0.5,0-0.9,0-1.5-0.2c-0.1,0-0.2-0.2-0.2-0.3c0-0.1,0.2-0.2,0.3-0.2c4,0.8,5.6-2.2,5.7-2.3
					c0.1-0.1,0.2-0.2,0.4-0.1c0.1,0.1,0.2,0.2,0.1,0.4C295.7,55.3,294.2,58,290.8,58z"/>
			</g>
			<g>
				<path class="st2" d="M293.2,57.5C293.1,57.5,293.1,57.5,293.2,57.5c-0.2,0-0.3-0.1-0.3-0.3c0-0.1,0.1-2.1-3.9-2.6
					c-0.1,0-0.3-0.2-0.2-0.3c0-0.1,0.2-0.3,0.3-0.2c4.5,0.6,4.4,3.1,4.4,3.2C293.4,57.4,293.3,57.5,293.2,57.5z"/>
			</g>
			<g>
				<path class="st2" d="M286.8,59.9c-1.9,0-3.2-2.2-3.2-2.3c-0.1-0.1,0-0.3,0.1-0.4c0.1-0.1,0.3,0,0.4,0.1c0,0,1.5,2.6,3.4,1.9
					c0.1,0,0.3,0,0.3,0.2c0,0.1,0,0.3-0.2,0.3C287.3,59.9,287.1,59.9,286.8,59.9z"/>
			</g>
			<g>
				<path class="st2" d="M290.6,61.6C290.6,61.6,290.6,61.6,290.6,61.6c-0.2-0.1-0.3-0.2-0.3-0.4c1-3.3,5.1-3,5.1-3
					c0.1,0,0.3,0.1,0.2,0.3c0,0.1-0.1,0.3-0.3,0.2c-0.1,0-3.6-0.3-4.5,2.6C290.9,61.5,290.7,61.6,290.6,61.6z"/>
			</g>
			<g>
				<path class="st2" d="M293.2,62.7c0,0-0.1,0-0.1,0c-0.1-0.1-0.2-0.2-0.1-0.4c1.1-2-0.1-3-0.2-3c-0.1-0.1-0.1-0.3,0-0.4
					c0.1-0.1,0.3-0.1,0.4,0c0,0,1.6,1.3,0.3,3.7C293.3,62.6,293.2,62.7,293.2,62.7z"/>
			</g>
			<g>
				<path class="st2" d="M286.7,64.4c-0.6,0-1.3-0.1-2-0.4c-1.3-0.5-2.2-1.3-2.2-1.3c-0.1-0.1-0.1-0.3,0-0.4c0.1-0.1,0.3-0.1,0.4,0
					c0,0,0.9,0.8,2.1,1.3c1.2,0.5,2.2,0.5,3.1,0.1c0.1-0.1,0.3,0,0.4,0.1c0.1,0.1,0,0.3-0.1,0.4C287.7,64.3,287.2,64.4,286.7,64.4z"
					/>
			</g>
			<g>
				<path class="st2" d="M284.8,64C284.7,64,284.7,64,284.8,64c-0.2,0-0.3-0.2-0.3-0.3c0.3-1.6,2.3-2.3,2.4-2.3c0.1,0,0.3,0,0.3,0.2
					c0,0.1,0,0.3-0.2,0.3c0,0-1.7,0.6-2,1.9C285,63.9,284.9,64,284.8,64z"/>
			</g>
			<g>
				<path class="st2" d="M292.1,50c-0.1,0-0.2-0.1-0.3-0.2c0-0.1,0.1-0.3,0.2-0.3c1.9-0.3,1.7-2.1,1.7-2.2c0-0.1,0.1-0.3,0.2-0.3
					c0.1,0,0.3,0.1,0.3,0.2C294.4,47.3,294.6,49.6,292.1,50C292.2,50,292.2,50,292.1,50z"/>
			</g>
			<g>
				<path class="st2" d="M288.4,68.2c-0.1,0-0.2-0.1-0.3-0.2c-0.5-2.6,2.7-4.1,2.9-4.1c0.1-0.1,0.3,0,0.4,0.1c0.1,0.1,0,0.3-0.1,0.4
					c0,0-3,1.3-2.6,3.5C288.7,68.1,288.6,68.2,288.4,68.2C288.4,68.2,288.4,68.2,288.4,68.2z"/>
			</g>
			<g>
				<path class="st2" d="M292.1,70.3c-0.1,0-0.3-0.1-0.3-0.3c0-0.1,0.1-0.3,0.3-0.3c2.2,0,3.1-2.2,3.1-2.2c0.1-0.1,0.2-0.2,0.3-0.2
					c0.1,0.1,0.2,0.2,0.2,0.3C295.7,67.9,294.7,70.3,292.1,70.3C292.1,70.3,292.1,70.3,292.1,70.3z"/>
			</g>
			<g>
				<path class="st2" d="M285.5,72.3c-0.3,0-0.5,0-0.5,0c-0.1,0-0.3-0.2-0.2-0.3c0-0.1,0.2-0.3,0.3-0.2c0.1,0,2.7,0.3,3.7-1.8
					c0.1-0.1,0.2-0.2,0.4-0.1c0.1,0.1,0.2,0.2,0.1,0.4C288.4,72,286.4,72.3,285.5,72.3z"/>
			</g>
			<g>
				<path class="st2" d="M287.9,76.9c-0.1,0-0.3-0.1-0.3-0.3c0-0.1,0.1-0.3,0.3-0.3c0.1,0,3-0.3,4.6-3.7c0.1-0.1,0.2-0.2,0.4-0.1
					c0.1,0.1,0.2,0.2,0.1,0.4C291.3,76.7,288.1,76.9,287.9,76.9C287.9,76.9,287.9,76.9,287.9,76.9z"/>
			</g>
			<g>
				<path class="st2" d="M290.3,76.1c-0.1,0-0.1,0-0.2-0.1c-1.4-1.1-0.7-4-0.6-4.1c0-0.1,0.2-0.2,0.3-0.2c0.1,0,0.2,0.2,0.2,0.3
					c0,0-0.7,2.6,0.5,3.5c0.1,0.1,0.1,0.3,0,0.4C290.4,76,290.3,76.1,290.3,76.1z"/>
			</g>
			<g>
				<path class="st2" d="M292.4,77.7c-0.1,0-0.3-0.1-0.3-0.3c0-2.3,3.1-2.7,3.2-2.7c0.1,0,0.3,0.1,0.3,0.2c0,0.1-0.1,0.3-0.2,0.3
					c0,0-2.8,0.3-2.8,2.1C292.7,77.6,292.6,77.7,292.4,77.7C292.4,77.7,292.4,77.7,292.4,77.7z"/>
			</g>
			<g>
				<path class="st2" d="M299.5,79.8c-0.3,0-0.7-0.1-1.1-0.3c0,0-0.8-0.4-1.6-0.2c-0.1,0-0.2,0-0.2,0c-0.1-0.1-0.1-0.1-0.1-0.2V50.9
					c0-1.2,0.5-3.1,1.5-3.8c1.1-0.8,2.7-0.9,4-0.4c1.1,0.5,1.9,1.5,2.1,2.8c0.1,0.1,0.5,0.9,2.3,2.2c1.9,1.3,1.4,3.1,1.2,3.7
					c0.4,0.4,1.2,1.4,1.1,2.2c0,0.2,0.1,0.4,0.3,0.8c0.6,1.1,1.6,2.9,0.3,6.5c0.2,0.6,1.1,3.1-0.9,4.5c0.2,0.3,0.4,0.9,0.2,1.5
					c-0.1,0.5-0.5,0.9-1.1,1.3c0.1,0.8,0.1,3.3-3,4.7c-0.2,0.5-1.2,2.5-3.5,2.2c-0.1,0.2-0.4,0.5-0.9,0.7
					C299.9,79.8,299.7,79.8,299.5,79.8z M297.3,78.8c0.7,0,1.3,0.3,1.3,0.3c1.4,0.6,1.9-0.3,1.9-0.5c0.1-0.1,0.2-0.2,0.3-0.2
					c2.3,0.4,3.1-1.8,3.1-1.9c0-0.1,0.1-0.1,0.1-0.2c3.3-1.5,2.7-4.4,2.7-4.4c0-0.1,0-0.3,0.2-0.3c0.6-0.3,0.9-0.6,1-1
					c0.2-0.7-0.2-1.3-0.3-1.3c0-0.1-0.1-0.1,0-0.2c0-0.1,0.1-0.1,0.1-0.2c2.2-1.3,0.9-4,0.9-4.1c0-0.1,0-0.1,0-0.2
					c1.2-3.4,0.3-5.2-0.3-6.2c-0.2-0.4-0.4-0.8-0.4-1.1c0.1-0.6-0.8-1.6-1.1-1.9c-0.1-0.1-0.1-0.2-0.1-0.3c0-0.1,0.9-1.8-1-3.1
					c-2.1-1.5-2.5-2.3-2.6-2.4c0,0,0,0,0-0.1c-0.2-1.4-1.1-2.1-1.8-2.4c-1.1-0.5-2.5-0.3-3.5,0.3c-0.7,0.5-1.2,2.2-1.2,3.4v27.9
					C297.1,78.8,297.2,78.8,297.3,78.8z"/>
			</g>
			<g>
				<path class="st2" d="M300.4,53.6c-0.1,0-0.2,0-0.3,0c-0.1,0-0.3-0.1-0.3-0.3s0.1-0.3,0.3-0.3c1.4,0.1,2.3-0.3,2.9-0.9
					c0.8-1,0.5-2.5,0.5-2.5c0-0.1,0.1-0.3,0.2-0.3c0.1,0,0.3,0.1,0.3,0.2c0,0.1,0.4,1.8-0.6,3C302.7,53.2,301.7,53.6,300.4,53.6z"/>
			</g>
			<g>
				<path class="st2" d="M299.3,53.3c0,0.4,0.4,0.8,0.8,0.8c0.4,0,0.8-0.4,0.8-0.8s-0.4-0.8-0.8-0.8
					C299.6,52.5,299.3,52.9,299.3,53.3z"/>
			</g>
			<g>
				<path class="st2" d="M301.3,58c-3.3,0-4.8-2.7-4.8-2.7c-0.1-0.1,0-0.3,0.1-0.4c0.1-0.1,0.3,0,0.4,0.1c0.1,0.1,1.8,3.1,5.7,2.3
					c0.1,0,0.3,0.1,0.3,0.2c0,0.1-0.1,0.3-0.2,0.3C302.3,58,301.8,58,301.3,58z"/>
			</g>
			<g>
				<path class="st2" d="M299,57.5c-0.1,0-0.3-0.1-0.3-0.2c0-0.1-0.2-2.6,4.4-3.2c0.1,0,0.3,0.1,0.3,0.2c0,0.1-0.1,0.3-0.2,0.3
					c-4,0.5-3.9,2.6-3.9,2.6C299.3,57.4,299.2,57.5,299,57.5C299,57.5,299,57.5,299,57.5z"/>
			</g>
			<g>
				<path class="st2" d="M305.4,59.9c-0.3,0-0.5,0-0.8-0.1c-0.1,0-0.2-0.2-0.2-0.3c0-0.1,0.2-0.2,0.3-0.2c1.9,0.6,3.4-1.9,3.4-1.9
					c0.1-0.1,0.2-0.2,0.4-0.1c0.1,0.1,0.2,0.2,0.1,0.4C308.5,57.7,307.2,59.9,305.4,59.9z"/>
			</g>
			<g>
				<path class="st2" d="M305.6,56.2c-0.4,0-1-0.1-1.6-0.4c-0.1-0.1-0.2-0.2-0.1-0.4c0.1-0.1,0.2-0.2,0.4-0.1
					c1.6,0.9,2.6-0.1,2.6-0.2c0.1-0.1,0.3-0.1,0.4,0c0.1,0.1,0.1,0.3,0,0.4C307.4,55.5,306.7,56.2,305.6,56.2z"/>
			</g>
			<g>
				<path class="st2" d="M301.5,61.6c-0.1,0-0.2-0.1-0.3-0.2c-0.9-2.9-4.5-2.6-4.5-2.6c-0.1,0-0.3-0.1-0.3-0.2
					c0-0.1,0.1-0.3,0.2-0.3c0,0,4.1-0.3,5.1,3C301.8,61.4,301.8,61.5,301.5,61.6C301.6,61.6,301.6,61.6,301.5,61.6z"/>
			</g>
			<g>
				<path class="st2" d="M299,62.7c-0.1,0-0.2-0.1-0.2-0.1c-1.3-2.4,0.3-3.7,0.3-3.7c0.1-0.1,0.3-0.1,0.4,0c0.1,0.1,0.1,0.3,0,0.4
					c-0.1,0-1.2,1.1-0.2,3c0.1,0.1,0,0.3-0.1,0.4C299.1,62.7,299.1,62.7,299,62.7z"/>
			</g>
			<g>
				<path class="st2" d="M305.5,64.4c-0.5,0-1-0.1-1.5-0.3c-0.1-0.1-0.2-0.2-0.1-0.4c0.1-0.1,0.2-0.2,0.4-0.1
					c0.9,0.4,1.9,0.3,3.1-0.1c1.2-0.5,2.1-1.2,2.1-1.3c0.1-0.1,0.3-0.1,0.4,0c0.1,0.1,0.1,0.3,0,0.4c0,0-1,0.8-2.2,1.3
					C306.8,64.3,306.1,64.4,305.5,64.4z"/>
			</g>
			<g>
				<path class="st2" d="M307.4,64c-0.1,0-0.2-0.1-0.3-0.2c-0.3-1.3-2-1.9-2-1.9c-0.1,0-0.2-0.2-0.2-0.3c0-0.1,0.2-0.2,0.3-0.2
					c0.1,0,2,0.7,2.4,2.3C307.7,63.8,307.6,64,307.4,64C307.4,64,307.4,64,307.4,64z"/>
			</g>
			<g>
				<path class="st2" d="M300,50C300,50,300,50,300,50c-2.4-0.4-2.2-2.7-2.2-2.7c0-0.1,0.1-0.3,0.3-0.2c0.1,0,0.3,0.1,0.2,0.3l0,0
					c0,0.1-0.1,1.9,1.7,2.2c0.1,0,0.2,0.2,0.2,0.3C300.3,49.9,300.2,50,300,50z"/>
			</g>
			<g>
				<path class="st2" d="M304.2,68.2c-1.5,0-3.1-0.3-4.9-1.3c-0.1-0.1-0.2-0.2-0.1-0.4c0.1-0.1,0.2-0.2,0.4-0.1c4.8,2.8,9.4,0,9.4,0
					c0.1-0.1,0.3,0,0.4,0.1c0.1,0.1,0,0.3-0.1,0.4C309.3,66.9,307.1,68.2,304.2,68.2z"/>
			</g>
			<g>
				<path class="st2" d="M303.8,68.2C303.8,68.2,303.8,68.2,303.8,68.2c-0.2,0-0.3-0.2-0.3-0.3c0.4-2.2-2.5-3.5-2.6-3.5
					c-0.1-0.1-0.2-0.2-0.1-0.4c0.1-0.1,0.2-0.2,0.4-0.1c0.1,0.1,3.4,1.5,2.9,4.1C304,68.2,303.9,68.2,303.8,68.2z"/>
			</g>
			<g>
				<path class="st2" d="M300,70.3C300,70.3,300,70.3,300,70.3c-2.6-0.1-3.5-2.4-3.6-2.5c-0.1-0.1,0-0.3,0.2-0.3
					c0.1-0.1,0.3,0,0.3,0.2c0,0.1,0.9,2.1,3.1,2.2c0.1,0,0.3,0.1,0.3,0.3C300.3,70.2,300.2,70.3,300,70.3z"/>
			</g>
			<g>
				<path class="st2" d="M306.7,72.3c-0.9,0-2.9-0.2-3.8-2.1c-0.1-0.1,0-0.3,0.1-0.4c0.1-0.1,0.3,0,0.4,0.1c1,2.1,3.6,1.8,3.7,1.8
					c0.1,0,0.3,0.1,0.3,0.2c0,0.1-0.1,0.3-0.2,0.3C307.1,72.2,307,72.3,306.7,72.3z"/>
			</g>
			<g>
				<path class="st2" d="M304.2,76.9C304.2,76.9,304.2,76.9,304.2,76.9c-0.2,0-3.4-0.3-5-4c-0.1-0.1,0-0.3,0.1-0.4
					c0.1-0.1,0.3,0,0.4,0.1c1.5,3.4,4.4,3.7,4.6,3.7c0.1,0,0.3,0.1,0.3,0.3C304.5,76.8,304.4,76.9,304.2,76.9z"/>
			</g>
			<g>
				<path class="st2" d="M301.9,76.1c-0.1,0-0.2,0-0.2-0.1c-0.1-0.1-0.1-0.3,0-0.4c1.1-0.9,0.5-3.5,0.5-3.5c0-0.1,0-0.3,0.2-0.3
					c0.1,0,0.3,0,0.3,0.2c0,0.1,0.8,3-0.6,4.1C302,76.1,302,76.1,301.9,76.1z"/>
			</g>
			<g>
				<path class="st2" d="M299.7,77.7C299.7,77.7,299.7,77.7,299.7,77.7c-0.2,0-0.3-0.1-0.3-0.3c0-1.8-2.7-2.1-2.8-2.1
					c-0.1,0-0.3-0.1-0.2-0.3c0-0.1,0.2-0.3,0.3-0.2c0.1,0,3.3,0.4,3.2,2.7C300,77.6,299.9,77.7,299.7,77.7z"/>
			</g>
			<g>
				<path class="st2" d="M290.4,57.6c0,0.4-0.4,0.8-0.8,0.8s-0.8-0.4-0.8-0.8c0-0.4,0.4-0.8,0.8-0.8S290.4,57.1,290.4,57.6z"/>
			</g>
			<g>
				<path class="st2" d="M288.9,63.7c0,0.4-0.4,0.8-0.8,0.8s-0.8-0.4-0.8-0.8s0.4-0.8,0.8-0.8S288.9,63.3,288.9,63.7z"/>
			</g>
			<g>
				<path class="st2" d="M293,69.9c0,0.4-0.4,0.8-0.8,0.8c-0.4,0-0.8-0.4-0.8-0.8c0-0.4,0.4-0.8,0.8-0.8
					C292.7,69.1,293,69.5,293,69.9z"/>
			</g>
			<g>
				<path class="st2" d="M290.5,72.1c0,0.4-0.4,0.8-0.8,0.8c-0.4,0-0.8-0.4-0.8-0.8c0-0.4,0.4-0.8,0.8-0.8
					C290.1,71.3,290.5,71.6,290.5,72.1z"/>
			</g>
			<g>
				<path class="st2" d="M301.8,57.6c0,0.4,0.4,0.8,0.8,0.8s0.8-0.4,0.8-0.8c0-0.4-0.4-0.8-0.8-0.8S301.8,57.1,301.8,57.6z"/>
			</g>
			<g>
				<path class="st2" d="M303.3,63.7c0,0.4,0.4,0.8,0.8,0.8s0.8-0.4,0.8-0.8s-0.4-0.8-0.8-0.8S303.3,63.3,303.3,63.7z"/>
			</g>
			<g>
				<path class="st2" d="M299.1,69.9c0,0.4,0.4,0.8,0.8,0.8s0.8-0.4,0.8-0.8c0-0.4-0.4-0.8-0.8-0.8S299.1,69.5,299.1,69.9z"/>
			</g>
			<g>
				<path class="st2" d="M301.7,72.1c0,0.4,0.4,0.8,0.8,0.8c0.4,0,0.8-0.4,0.8-0.8c0-0.4-0.4-0.8-0.8-0.8
					C302,71.3,301.7,71.6,301.7,72.1z"/>
			</g>
		</g>
	</g>
	<g>
		<circle class="st1" cx="373.5" cy="47.4" r="23"/>
		<circle class="st1" cx="395.8" cy="34.5" r="10.5"/>
		<g>
			<g>
				<polygon class="st2" points="378,32.2 383.3,32.2 385.9,36.7 383.3,41.3 378,41.3 375.4,36.7 				"/>
				<path class="st2" d="M383.3,41.7H378c-0.1,0-0.3-0.1-0.4-0.2L375,37c-0.1-0.1-0.1-0.3,0-0.4l2.6-4.6c0.1-0.1,0.2-0.2,0.4-0.2
					h5.3c0.1,0,0.3,0.1,0.4,0.2l2.6,4.6c0.1,0.1,0.1,0.3,0,0.4l-2.6,4.6C383.6,41.6,383.4,41.7,383.3,41.7z M378.3,40.9h4.8l2.4-4.1
					l-2.4-4.1h-4.8l-2.4,4.1L378.3,40.9z"/>
			</g>
			<g>
				<path class="st2" d="M375.3,46.3h-5.3c-0.1,0-0.3-0.1-0.4-0.2l-2.6-4.6c-0.1-0.1-0.1-0.3,0-0.4l2.6-4.6c0.1-0.1,0.2-0.2,0.4-0.2
					h5.3c0.1,0,0.3,0.1,0.4,0.2l2.6,4.6c0.1,0.1,0.1,0.3,0,0.4l-2.6,4.6C375.6,46.2,375.5,46.3,375.3,46.3z M370.3,45.4h4.8l2.4-4.1
					l-2.4-4.1h-4.8l-2.4,4.1L370.3,45.4z"/>
			</g>
			<g>
				<path class="st2" d="M375.3,55.4h-5.3c-0.1,0-0.3-0.1-0.4-0.2l-2.6-4.6c-0.1-0.1-0.1-0.3,0-0.4l2.6-4.6c0.1-0.1,0.2-0.2,0.4-0.2
					h5.3c0.1,0,0.3,0.1,0.4,0.2l2.6,4.6c0.1,0.1,0.1,0.3,0,0.4l-2.6,4.6C375.6,55.3,375.5,55.4,375.3,55.4z M370.3,54.6h4.8l2.4-4.1
					l-2.4-4.1h-4.8l-2.4,4.1L370.3,54.6z"/>
			</g>
			<g>
				<path class="st2" d="M375.3,64.5h-5.3c-0.1,0-0.3-0.1-0.4-0.2l-2.6-4.6c-0.1-0.1-0.1-0.3,0-0.4l2.6-4.6c0.1-0.1,0.2-0.2,0.4-0.2
					h5.3c0.1,0,0.3,0.1,0.4,0.2l2.6,4.6c0.1,0.1,0.1,0.3,0,0.4l-2.6,4.6C375.6,64.4,375.5,64.5,375.3,64.5z M370.3,63.7h4.8l2.4-4.1
					l-2.4-4.1h-4.8l-2.4,4.1L370.3,63.7z"/>
			</g>
			<g>
				<path class="st2" d="M367.5,50.8h-5.3c-0.1,0-0.3-0.1-0.4-0.2l-2.6-4.6c-0.1-0.1-0.1-0.3,0-0.4l2.6-4.6c0.1-0.1,0.2-0.2,0.4-0.2
					h5.3c0.1,0,0.3,0.1,0.4,0.2l2.6,4.6c0.1,0.1,0.1,0.3,0,0.4l-2.6,4.6C367.8,50.8,367.7,50.8,367.5,50.8z M362.5,50h4.8l2.4-4.1
					l-2.4-4.1h-4.8l-2.4,4.1L362.5,50z"/>
			</g>
		</g>
	</g>
	<g>
		<circle class="st1" cx="463.5" cy="81.4" r="23"/>
		<circle class="st1" cx="485.8" cy="68.5" r="10.5"/>
		<g>
			<g>
				<path class="st1" d="M473,94.4c0,0,0,0.3,0,0.4c0,0.9-4.5,1.7-10,1.7c-5.5,0-9.9-0.7-9.9-1.7c0-0.1,0-0.4,0-0.4v-5.7H473V94.4z"
					/>
				<path class="st2" d="M463.1,97.1c-2.5,0-10.6-0.2-10.6-2.3V88h21.2v6.7C473.7,96.9,465.6,97.1,463.1,97.1z M453.8,94.6
					c0.6,0.4,3.8,1.1,9.3,1.1c5.5,0,8.7-0.7,9.3-1.1v-5.3h-18.6V94.6z"/>
			</g>
			<g>
				<ellipse class="st1" cx="463.1" cy="88.6" rx="10.1" ry="2.2"/>
				<path class="st2" d="M463.1,91.5c-1.1,0-10.9-0.1-10.9-2.9c0-2.9,9.8-2.9,10.9-2.9c1.1,0,10.9,0.1,10.9,2.9
					C474,91.5,464.2,91.5,463.1,91.5z M453.8,88.6c0.7,0.5,3.8,1.4,9.3,1.4c5.4,0,8.6-0.9,9.3-1.4c-0.7-0.5-3.8-1.4-9.3-1.4
					S454.5,88.1,453.8,88.6z"/>
			</g>
			<g>
				<path class="st3" d="M467.4,88.7c0,0.4-1.9,0.7-4.3,0.7c-2.4,0-4.3-0.3-4.3-0.7c0-0.4,1.9-0.7,4.3-0.7
					C465.5,87.9,467.4,88.3,467.4,88.7z"/>
			</g>
			<g>
				<path class="st2" d="M469.6,89.3c0,0,0,0.2,0,0.3c0,0.6-3.1,1.2-6.9,1.2c-3.8,0-6.9-0.5-6.9-1.2c0-0.1,0-0.3,0-0.3v-3.9h13.8
					V89.3z"/>
				<path class="st2" d="M462.7,91.4c-2.8,0-7.6-0.2-7.6-1.8v-4.9h15.1v4.9C470.2,91.2,465.5,91.4,462.7,91.4z M456.4,89.4
					c0.6,0.3,2.7,0.7,6.2,0.7c3.5,0,5.7-0.4,6.2-0.7v-3.3h-12.4V89.4z"/>
			</g>
			<g>
				<path class="st1" d="M472.6,84.2c0,0,0,0.3,0,0.4c0,0.9-4.5,1.7-10,1.7c-5.5,0-9.9-0.7-9.9-1.7c0-0.1,0-0.4,0-0.4v-5.7h19.9
					V84.2z"/>
				<path class="st2" d="M462.7,86.9c-2.5,0-10.6-0.2-10.6-2.3v-6.7h21.2v6.7C473.3,86.7,465.2,86.9,462.7,86.9z M453.4,84.4
					c0.6,0.4,3.8,1.1,9.3,1.1c5.5,0,8.7-0.7,9.3-1.1v-5.3h-18.6V84.4z"/>
			</g>
			<g>
				<path class="st1" d="M472.8,78.3c0,1.1-4.5,2.1-10.1,2.1c-5.6,0-10.1-0.9-10.1-2.1c0-1.1,4.5-2.1,10.1-2.1
					C468.3,76.3,472.8,77.2,472.8,78.3z"/>
				<path class="st2" d="M462.7,81.2c-1.8,0-10.9-0.1-10.9-2.8c0-2.7,9.1-2.8,10.9-2.8c1.8,0,10.9,0.1,10.9,2.8
					C473.6,81,464.5,81.2,462.7,81.2z M453.4,78.3c0.8,0.5,3.9,1.3,9.3,1.3c5.4,0,8.5-0.8,9.3-1.3c-0.8-0.5-3.9-1.3-9.3-1.3
					C457.3,77,454.2,77.8,453.4,78.3z"/>
			</g>
			<g>
				<ellipse class="st3" cx="462.7" cy="79.1" rx="4.3" ry="0.7"/>
			</g>
			<g>
				<path class="st2" d="M469.6,79.1c0,0,0,0.2,0,0.3c0,0.6-3.1,1.2-6.9,1.2c-3.8,0-6.9-0.5-6.9-1.2c0-0.1,0-0.3,0-0.3v-3.9h13.8
					V79.1z"/>
				<path class="st2" d="M462.7,81.2c-2.8,0-7.6-0.2-7.6-1.8v-4.9h15.1v4.9C470.2,81,465.5,81.2,462.7,81.2z M456.4,79.2
					c0.6,0.3,2.7,0.7,6.2,0.7c3.5,0,5.7-0.4,6.2-0.7v-3.3h-12.4V79.2z"/>
			</g>
			<g>
				<path class="st1" d="M472.6,74c0,0,0,0.3,0,0.4c0,0.9-4.5,1.7-10,1.7c-5.5,0-9.9-0.7-9.9-1.7c0-0.1,0-0.4,0-0.4v-5.7h19.9V74z"
					/>
				<path class="st2" d="M462.7,76.7c-2.5,0-10.6-0.2-10.6-2.3v-6.7h21.2v6.7C473.3,76.5,465.2,76.7,462.7,76.7z M453.4,74.2
					c0.6,0.4,3.8,1.1,9.3,1.1c5.5,0,8.7-0.7,9.3-1.1v-5.3h-18.6V74.2z"/>
			</g>
			<g>
				<ellipse class="st1" cx="462.7" cy="68" rx="10.1" ry="2"/>
				<path class="st2" d="M462.7,70.7c-1.8,0-10.9-0.1-10.9-2.7c0-2.6,9.1-2.7,10.9-2.7s10.9,0.1,10.9,2.7
					C473.5,70.6,464.5,70.7,462.7,70.7z M453.4,68c0.8,0.5,4,1.2,9.3,1.2s8.4-0.8,9.3-1.2c-0.8-0.5-4-1.2-9.3-1.2
					S454.2,67.5,453.4,68z"/>
			</g>
			<g>
				<ellipse class="st2" cx="462.7" cy="68.3" rx="4.3" ry="0.7"/>
			</g>
		</g>
	</g>
	<g>
		<circle class="st1" cx="230.1" cy="99.2" r="23"/>
		<circle class="st1" cx="205.6" cy="90.9" r="10.5"/>
		<g>
			<path class="st2" d="M246.9,97.9l0-0.5l-2.7-1.2c-0.2-1-0.5-1.9-0.9-2.9l1.5-2.6l-0.3-0.4c-0.9-1.4-2-2.7-3.3-3.8l-0.4-0.3
				l-2.8,1.1c-0.9-0.5-1.8-1-2.7-1.4l-0.8-2.9l-0.5-0.1c-1.2-0.3-2.4-0.4-3.7-0.4c-0.5,0-0.9,0-1.3,0.1l-0.5,0l-1.2,2.7
				c-1,0.2-1.9,0.5-2.9,0.9l-2.6-1.5l-0.4,0.3c-1.4,0.9-2.7,2-3.8,3.3l-0.3,0.4l1.1,2.8c-0.5,0.8-1,1.7-1.3,2.7L214,95l-0.1,0.5
				c-0.3,1.2-0.4,2.4-0.4,3.7c0,0.5,0,0.9,0.1,1.3l0,0.5l2.7,1.2c0.2,1,0.5,1.9,0.9,2.9l-1.5,2.6l0.3,0.4c0.9,1.4,2,2.7,3.2,3.8
				l0.4,0.3l2.8-1.1c0.8,0.5,1.7,1,2.7,1.4l0.8,2.9l0.5,0.1c1.2,0.3,2.4,0.4,3.7,0.4c0.5,0,0.9,0,1.3-0.1l0.5,0l1.2-2.7
				c1-0.2,1.9-0.5,2.9-0.9l2.6,1.5l0.4-0.3c1.4-0.9,2.7-2,3.8-3.2l0.3-0.4l-1.1-2.8c0.5-0.8,1-1.7,1.4-2.7l2.9-0.8l0.1-0.5
				c0.3-1.2,0.4-2.4,0.4-3.7C247,98.7,247,98.3,246.9,97.9z M245,102l-2.8,0.8l-0.1,0.4c-0.4,1.1-0.9,2.1-1.6,3.1l-0.3,0.4l1,2.7
				c-0.8,0.8-1.6,1.6-2.6,2.2l-2.5-1.4l-0.4,0.2c-1,0.5-2.1,0.9-3.3,1.1l-0.5,0.1l-1.2,2.6c-0.2,0-0.4,0-0.6,0
				c-0.9,0-1.9-0.1-2.8-0.3l-0.8-2.8l-0.4-0.1c-1.1-0.4-2.1-0.9-3.1-1.5l-0.4-0.3l-2.7,1c-0.8-0.8-1.6-1.6-2.2-2.6l1.4-2.5l-0.2-0.4
				c-0.5-1-0.9-2.1-1.1-3.3l-0.1-0.5l-2.6-1.2c0-0.2,0-0.4,0-0.6c0-0.9,0.1-1.9,0.3-2.8l2.8-0.8l0.1-0.4c0.4-1.1,0.9-2.1,1.5-3.1
				l0.3-0.4l-1-2.7c0.8-0.8,1.6-1.6,2.6-2.2l2.5,1.4l0.4-0.2c1-0.5,2.2-0.9,3.3-1.1l0.5-0.1l1.1-2.6c0.2,0,0.4,0,0.6,0
				c0.9,0,1.9,0.1,2.8,0.3l0.8,2.8l0.4,0.1c1.1,0.4,2.1,0.9,3.1,1.6l0.4,0.3l2.7-1c0.8,0.8,1.6,1.6,2.2,2.6l-1.4,2.5l0.2,0.4
				c0.5,1,0.9,2.1,1.1,3.3l0.1,0.5l2.6,1.2c0,0.2,0,0.4,0,0.6C245.2,100.1,245.1,101.1,245,102z"/>
			<path class="st2" d="M230.2,90.1c-5,0-9.1,4.1-9.1,9.1c0,5,4.1,9.1,9.1,9.1c5,0,9.1-4.1,9.1-9.1
				C239.3,94.2,235.3,90.1,230.2,90.1z M230.2,106.2c-3.9,0-7-3.2-7-7s3.2-7,7-7c3.9,0,7,3.2,7,7S234.1,106.2,230.2,106.2z"/>
			
				<ellipse transform="matrix(0.3827 -0.9239 0.9239 0.3827 50.5026 273.9389)" class="st2" cx="230.2" cy="99.2" rx="5.3" ry="5.3"/>
		</g>
	</g>
	<circle class="st4" cx="143" cy="139" r="7.5"/>
	<circle class="st4" cx="498" cy="454" r="7.5"/>
	<g>
		<line class="st5" x1="227.5" y1="468.5" x2="239.5" y2="480.5"/>
		<line class="st5" x1="228.5" y1="479.5" x2="239.5" y2="468.5"/>
	</g>
	<g>
		<line class="st5" x1="510" y1="471.1" x2="527" y2="471.9"/>
		<line class="st5" x1="518.2" y1="478.6" x2="518.9" y2="463"/>
	</g>
</g>
<g id="Layer_2">
	<g>
		<path class="st0" d="M1640.7-53.7c8.1-10.2,18.9-18,31.2-22.4l29.1-10.4l37.8-15.8c16.9-7.1,34.3-13.1,51.9-18.2l21.7-6.2
			c34.8-9.9,71-13.9,107.1-10.9c24.9,2,50.5,7.4,67.1,19.5c0,0,135.4,87.1,176.5,144.7c3.9,5.5,7.9,10.9,12.2,16
			c9.5,11.3,26.9,36.8,32.8,77.1c4.7,32.2,0.5,65-11.3,95.3l-35.9,91.4c-17.3,44.2-59.7,73.9-107.2,74c-0.9,0-1.9,0-2.8,0h-262.5
			c0,0-95.4-3.9-133.2-52.6c-2.7-3.5-5.6-6.9-8.7-10.1c-15.6-16.4-62.5-75.2-51-177.6l19-140.2C1614.6,0,1619.6-27.1,1640.7-53.7z"
			/>
		<rect x="1703.3" y="-95.7" class="st6" width="430.2" height="221.8"/>
		<rect x="1931.8" y="-44.6" class="st7" width="167.8" height="122"/>
		<rect x="1777.9" y="94.6" class="st8" width="166.3" height="21.5"/>
		<g>
			<g>
				<polyline class="st9" points="1911.9,74.1 1911.9,76.1 1909.9,76.1 				"/>
				<line class="st10" x1="1905.8" y1="76.1" x2="1809" y2="76.1"/>
				<polyline class="st9" points="1806.9,76.1 1804.9,76.1 1804.9,74.1 				"/>
				<line class="st11" x1="1804.9" y1="70.3" x2="1804.9" y2="19"/>
				<polyline class="st9" points="1804.9,17.1 1804.9,15.1 1806.9,15.1 				"/>
				<line class="st10" x1="1811.1" y1="15.1" x2="1907.8" y2="15.1"/>
				<polyline class="st9" points="1909.9,15.1 1911.9,15.1 1911.9,17.1 				"/>
				<line class="st11" x1="1911.9" y1="20.9" x2="1911.9" y2="72.2"/>
			</g>
		</g>
		<rect x="1805.6" y="-23.9" class="st7" width="105.6" height="4.7"/>
		<rect x="1805.6" y="-13.5" class="st7" width="105.6" height="4.7"/>
		<rect x="1805.6" y="-3.1" class="st7" width="105.6" height="4.7"/>
		<g>
			<rect x="1760.9" y="-81.8" class="st7" width="310" height="14.1"/>
			<rect x="2079.4" y="-81.8" class="st7" width="42.5" height="14.1"/>
			<path class="st7" d="M1754.1-74.8c0,2.7-2.2,5-5,5c-2.7,0-5-2.2-5-5c0-2.7,2.2-5,5-5C1751.8-79.7,1754.1-77.5,1754.1-74.8z"/>
			<path class="st7" d="M1739.9-74.8c0,2.7-2.2,5-5,5c-2.7,0-5-2.2-5-5c0-2.7,2.2-5,5-5C1737.7-79.7,1739.9-77.5,1739.9-74.8z"/>
			<path class="st7" d="M1725.7-74.8c0,2.7-2.2,5-5,5c-2.7,0-5-2.2-5-5c0-2.7,2.2-5,5-5C1723.5-79.7,1725.7-77.5,1725.7-74.8z"/>
		</g>
		<g>
			<line class="st12" x1="2164.4" y1="-95.7" x2="2143.1" y2="-95.7"/>
			<line class="st12" x1="2153.8" y1="-3.1" x2="2153.8" y2="-95.7"/>
		</g>
		<g>
			<line class="st12" x1="2143.1" y1="126.2" x2="2164.4" y2="126.2"/>
			<line class="st12" x1="2153.8" y1="33.7" x2="2153.8" y2="126.2"/>
		</g>
		<line class="st12" x1="1704.1" y1="-106.7" x2="1704.1" y2="-128"/>
		<line class="st12" x1="2133.4" y1="-106.7" x2="2133.4" y2="-128"/>
		<line class="st12" x1="1704.1" y1="-117.4" x2="1897.1" y2="-117.4"/>
		<line class="st12" x1="1940.5" y1="-117.4" x2="2133.4" y2="-117.4"/>
		<rect x="1896.8" y="-124.3" style="fill:none;" width="43.7" height="15.6"/>
		
			<text transform="matrix(1 0 0 1 1902.916 -111.6294)" class="st6" style="font-family:'Roboto-Regular'; font-size:16.6319px; letter-spacing:1;">123</text>
		<rect x="2131.9" y="9.9" style="fill:none;" width="43.7" height="15.6"/>
		
			<text transform="matrix(1 0 0 1 2143.5771 22.6025)" class="st6" style="font-family:'Roboto-Regular'; font-size:16.6319px; letter-spacing:1;">45</text>
		<g>
			<polygon class="st1" points="1993.9,203.8 1986,203.8 1983.3,279.8 1987.1,279.9 			"/>
			<polygon class="st1" points="1914.7,276.5 1917.1,283.4 1987.1,283.4 1987.1,279.9 			"/>
			<polygon class="st1" points="1985.7,283.4 2010.2,370 2007.3,370 1979.8,283.4 			"/>
			<polygon class="st1" points="1921.7,283.4 1897.1,370 1900.1,370 1927.6,283.4 			"/>
		</g>
		<rect x="1662.2" y="-25.2" class="st1" width="107" height="61"/>
		<rect x="1829.4" y="136.3" class="st1" width="166.3" height="21.5"/>
		<g>
			<path class="st13" d="M1664.5,39.3c4.2-6.9-1.9-3.8-1.9-3.8s-5.6-6.8-7.5-5.8c-2.5,1.4,4.4,12.3,4.4,12.3L1664.5,39.3z"/>
			<g>
				<path class="st14" d="M1727.1,41.8c0,0-2.2-8.6-15.2-10.4c-12.2-1.7-25.1,3.2-23.5,32.4c0.3,6.4,4.5,12.1,10.6,14.3l3.4,1.2
					c2.7,1,5.7-0.8,6-3.7l0.4-3l6.2-11.5L1727.1,41.8z"/>
				<path class="st13" d="M1766.1,39.5c-3.8-7.1,2.2-3.7,2.2-3.7s6.1-6.4,7.8-5.3c2.4,1.6-5.2,12-5.2,12L1766.1,39.5z"/>
				<linearGradient id="SVGID_1_" gradientUnits="userSpaceOnUse" x1="1657.4723" y1="96.1401" x2="1770.9274" y2="96.1401">
					<stop  offset="0" style="stop-color:#4F6DF5"/>
					<stop  offset="0.23" style="stop-color:#4F6DF5"/>
					<stop  offset="0.52" style="stop-color:#4F73F5"/>
					<stop  offset="0.73" style="stop-color:#4F78F5"/>
					<stop  offset="1" style="stop-color:#4F82F5"/>
				</linearGradient>
				<path class="st15" d="M1770.9,42.5l-4.8-3l-5.8,30c-0.4,2-1.7,3.7-3.6,4.5l-18,8c-1,0.5-2.1,0.7-3.3,0.7l-44.8-0.4
					c-0.8,0-1.6-0.1-2.3-0.4l-14.4-5c-2.2-0.8-3.8-2.7-4.2-5l-5.1-32.6l-5,2.7l-2,34c-0.2,3.7,1.5,7.2,4.6,9.3l22.2,15.1
					c1.8,1.3,3.1,3.2,3.5,5.4l7.9,47.3h37.5l6.8-48.9c0.4-3,2.3-5.6,4.9-7l19.4-10.2c3.3-1.7,5.3-5,5.5-8.7L1770.9,42.5z"/>
				<linearGradient id="SVGID_2_" gradientUnits="userSpaceOnUse" x1="1685.1099" y1="230.024" x2="1766.8689" y2="230.024">
					<stop  offset="0" style="stop-color:#000000"/>
					<stop  offset="0.52" style="stop-color:#323232"/>
					<stop  offset="1" style="stop-color:#646464"/>
				</linearGradient>
				<path class="st16" d="M1695.6,153c0,0-10.7,7-10.5,26.4c0.3,24.6,4.2,127.6,4.2,127.6h9.4l15.6-130.7l27.9,18.7
					c2.7,1.8,4.4,4.7,4.7,7.9l6.5,65.2h8.1l5.1-69.2c0.3-4.6-1.2-9.1-4.2-12.5l-29.5-33.5"/>
				<path class="st13" d="M1727.9,82.6l-8.3,12.9c-1.7,2.7-5.6,2.7-7.3,0l-8.3-12.9H1727.9z"/>
				<path class="st13" d="M1708.7,72.6h15.2l3.2-8.8l0,0c1.7-1,2.3-3.1,1.4-4.9l-0.3-0.6l-1.2-16.6l-11.3,3.2
					c-2.2,0.6-3.8,2.5-3.9,4.8l-0.2,3c-0.1,0.8-0.6,1.4-1.4,1.5l0,0c-0.4,0.1-0.8-0.1-1-0.4c-0.8-1.2-2.7-3.7-4.1-2.5
					c-1.9,1.6-0.5,4.3,1.8,6.1C1706.8,57.3,1709.8,64,1708.7,72.6z"/>
				<rect x="1710.2" y="71.8" class="st13" width="9.5" height="16.9"/>
				<path class="st17" d="M1753.6,268.2v12h1.8l1.3-5l3.1,5h17.6c0,0-10.6-1.7-15.7-12H1753.6z"/>
				<path class="st17" d="M1689.3,307v12h1.8l1.3-5l3.1,5h17.6c0,0-10.6-1.7-15.7-12H1689.3z"/>
				<polygon class="st18" points="1710.2,75.5 1719.8,73.5 1719.8,72.6 1710.2,72.6 				"/>
			</g>
		</g>
		<g>
			<path class="st14" d="M2051.7,101.2l7.7,19.5l11.3,12.3l10.4-14.7c2.2-3.1,3.7-6.7,4.2-10.5l0.9-6.2c0.1-1-0.9-1.6-1.7-1.1l0,0
				c-0.5,0.3-1.1,0.3-1.5-0.1l-13.5-12.5c-0.5-0.4-1.2-0.1-1.2,0.6v0c0.1,1.3-1.1,2.4-2.4,2.1l-14.8-3.5c-1.3-0.3-2.3,1.2-1.5,2.3
				l0.8,1c0.7,0.9,0.2,2.3-0.9,2.5l-3.6,0.8c-1.5,0.3-1.9,2.3-0.6,3.1L2051.7,101.2z"/>
			<path class="st13" d="M2097.2,53.6c-6.1-5.3,0.7-4.3,0.7-4.3s3.4-8.2,5.4-7.8c2.8,0.5-0.6,13.1-0.6,13.1L2097.2,53.6z"/>
			<path class="st13" d="M1974.5,158.8l-2.8,4.9l39.3,21.2c2.4,1.3,5.4,1.4,7.8,0.1l26.5-13.4l10.6,47.8l54.9-3.7l-6.9-66.1
				l-1.2-94.9l-5.5-1l-16.2,83.3l-41.3,12l-23,20.7c-1.4,1.2-3.3,1.6-5,1.1L1974.5,158.8z"/>
			<path class="st13" d="M2068.5,138.6l-17.8-4.3c-1.9-0.5-3.2-2.3-3.1-4.2l0.6-7.2c0.1-0.7-0.4-1.3-1.1-1.5l-0.3-0.1
				c-1.3-0.3-2-1.7-1.6-2.9l6.4-17.2l14.3,8.3c1.5,0.9,2.2,2.6,1.7,4.3l-1.1,4c-0.2,0.5,0.2,1.1,0.7,1.2l0.2,0.1
				c0.7,0.2,1.3-0.1,1.7-0.7c1-1.4,3-3.8,4.6-2c1.3,1.5,0.3,5.6-1.8,7.3c-0.5,0.4-0.9,1-0.9,1.7l-0.6,7.6L2068.5,138.6z"/>
			
				<rect x="2057.4" y="132.9" transform="matrix(0.972 -0.2348 0.2348 0.972 24.6294 488.4513)" class="st13" width="11.5" height="15.8"/>
			<path class="st17" d="M2058.7,363.6l0,1.4c0,1.8-1.4,3.2-3.2,3.3l-20.2,0.3c-0.7,0-1-0.9-0.5-1.3c6.8-5.2,15.6-5.2,15.6-5.2
				L2058.7,363.6z"/>
			<path class="st17" d="M2131.1,362.6l0,1.2c0,1.9-1.5,3.4-3.3,3.4l-18.7,0.3c-1.1,0-1.6-1.4-0.7-2.1c6.6-4.4,14.5-4.4,14.5-4.4
				L2131.1,362.6z"/>
			<linearGradient id="SVGID_3_" gradientUnits="userSpaceOnUse" x1="2026.6753" y1="169.7204" x2="2110.8962" y2="169.7204">
				<stop  offset="0" style="stop-color:#4F6DF5"/>
				<stop  offset="0.23" style="stop-color:#4F6DF5"/>
				<stop  offset="0.52" style="stop-color:#4F73F5"/>
				<stop  offset="0.73" style="stop-color:#4F82F5"/>
				<stop  offset="1" style="stop-color:#4FA0F5"/>
			</linearGradient>
			<path class="st19" d="M2026.7,160.6l9.5,14.8l9.2-3.9l10.6,47.8l54.9-3.7l-6.9-66.1l-0.3-24.6l-19.4-4.8l-2.6,13.4
				c-0.4,2.1-1.9,3.7-3.9,4.3l-36.1,10.6c-1.2,0.4-2.3,1-3.3,1.8L2026.7,160.6z"/>
			<polygon class="st18" points="2068.7,139.2 2056.5,137.9 2055.9,135.5 2068.5,138.6 			"/>
			<linearGradient id="SVGID_4_" gradientUnits="userSpaceOnUse" x1="2050.4836" y1="289.6286" x2="2131.1379" y2="289.6286">
				<stop  offset="0" style="stop-color:#000000"/>
				<stop  offset="0.52" style="stop-color:#323232"/>
				<stop  offset="1" style="stop-color:#646464"/>
			</linearGradient>
			<polygon class="st20" points="2050.5,362.1 2058.7,363.6 2084,233.4 2122.9,361.1 2131.1,362.6 2110.9,215.7 2110.9,215.7 
				2056,219.4 			"/>
		</g>
		<polygon class="st21" points="1665.5,368.9 1665.5,318 1727.9,318 1727.9,280.2 1787.7,280.2 1787.7,248.3 1856.2,248.3 
			1856.2,368.9 		"/>
		<path class="st13" d="M1974.5,158.8c-0.2-8-3.7-2.2-3.7-2.2s-8.5-2.7-9.5-0.9c-1.4,2.5,10.5,7.9,10.5,7.9L1974.5,158.8z"/>
	</g>
	<g>
		<g>
			<g>
				<rect x="220.2" y="182.7" class="st6" width="96" height="67.4"/>
				<path class="st7" d="M313.7,188.6c0,2-1.6,3.6-3.6,3.6c-2,0-3.6-1.6-3.6-3.6c0-2,1.6-3.6,3.6-3.6
					C312.1,185.1,313.7,186.7,313.7,188.6z"/>
				<path class="st7" d="M304.5,188.6c0,2-1.6,3.6-3.6,3.6c-2,0-3.6-1.6-3.6-3.6c0-2,1.6-3.6,3.6-3.6
					C302.9,185.1,304.5,186.7,304.5,188.6z"/>
				<rect x="298.7" y="188" class="st6" width="4.4" height="1.2"/>
				
					<rect x="307.9" y="188" transform="matrix(0.7071 0.7071 -0.7071 0.7071 224.2345 -164.0538)" class="st6" width="4.4" height="1.2"/>
				
					<rect x="307.9" y="188" transform="matrix(0.7071 -0.7071 0.7071 0.7071 -42.5527 274.5674)" class="st6" width="4.4" height="1.2"/>
				<rect x="224" y="187.3" class="st7" width="43" height="4"/>
				<rect x="224" y="234.1" class="st7" width="43" height="4"/>
				<rect x="225.2" y="198.9" class="st7" width="25.5" height="27.5"/>
				<rect x="255.2" y="198.9" class="st7" width="26.7" height="2.1"/>
				<rect x="255.2" y="204.9" class="st7" width="26.7" height="2.1"/>
				<rect x="255.2" y="211" class="st7" width="26.7" height="2.1"/>
				<rect x="255.2" y="217.1" class="st7" width="21.9" height="2.1"/>
			</g>
			<g>
				<rect x="498.9" y="146.7" class="st6" width="84.7" height="59.5"/>
				<path class="st7" d="M581.5,152c0,1.7-1.4,3.2-3.2,3.2c-1.8,0-3.2-1.4-3.2-3.2c0-1.7,1.4-3.2,3.2-3.2
					C580,148.8,581.5,150.2,581.5,152z"/>
				<path class="st7" d="M573.3,152c0,1.7-1.4,3.2-3.2,3.2c-1.7,0-3.2-1.4-3.2-3.2c0-1.7,1.4-3.2,3.2-3.2
					C571.9,148.8,573.3,150.2,573.3,152z"/>
				<rect x="568.2" y="151.4" class="st6" width="3.9" height="1.1"/>
				
					<rect x="576.3" y="151.4" transform="matrix(0.7071 0.7071 -0.7071 0.7071 276.8413 -364.4035)" class="st6" width="3.9" height="1.1"/>
				
					<rect x="576.3" y="151.4" transform="matrix(0.7071 -0.7071 0.7071 0.7071 61.91 453.4185)" class="st6" width="3.9" height="1.1"/>
				<rect x="502.3" y="150.7" class="st7" width="37.9" height="3.5"/>
				<rect x="502.3" y="192.1" class="st7" width="37.9" height="3.5"/>
				<rect x="503.4" y="161" class="st7" width="22.5" height="24.3"/>
				<rect x="529.8" y="161" class="st7" width="23.6" height="1.8"/>
				<rect x="529.8" y="166.4" class="st7" width="23.6" height="1.8"/>
				<rect x="529.8" y="171.7" class="st7" width="23.6" height="1.8"/>
				<rect x="529.8" y="177.1" class="st7" width="19.3" height="1.8"/>
			</g>
			<g>
				<rect x="363.6" y="246.1" class="st6" width="134.1" height="94.1"/>
				<circle class="st22" cx="489.3" cy="254.4" r="5"/>
				<circle class="st22" cx="476.4" cy="254.4" r="5"/>
				<rect x="473.3" y="253.5" class="st23" width="6.2" height="1.7"/>
				
					<rect x="486.2" y="253.5" transform="matrix(0.7071 0.7071 -0.7071 0.7071 323.1787 -271.4452)" class="st23" width="6.2" height="1.7"/>
				
					<rect x="486.2" y="253.5" transform="matrix(0.7071 -0.7071 0.7071 0.7071 -36.5814 420.4618)" class="st23" width="6.2" height="1.7"/>
				<rect x="369" y="252.4" class="st7" width="60" height="5.6"/>
				<rect x="369" y="317.8" class="st7" width="60" height="5.6"/>
				<rect x="370.7" y="268.6" class="st7" width="35.6" height="38.4"/>
				<rect x="412.5" y="268.6" class="st7" width="37.3" height="2.9"/>
				<rect x="412.5" y="277.1" class="st7" width="37.3" height="2.9"/>
				<rect x="412.5" y="285.7" class="st7" width="37.3" height="2.9"/>
				<rect x="412.5" y="294.2" class="st7" width="30.6" height="2.9"/>
			</g>
			<path class="st24" d="M312.3,323.1L300,309.3c-1.2-1.4-1.1-3.5,0.3-4.8l0,0c1.4-1.2,3.5-1.1,4.8,0.3l12.3,13.8
				c1.2,1.4,1.1,3.5-0.3,4.8l0,0C315.7,324.6,313.5,324.5,312.3,323.1z"/>
			<path class="st25" d="M313.9,321.4l-12.3-13.8c-0.9-1-1.1-2.4-0.6-3.6c-0.3,0.1-0.5,0.3-0.8,0.5c-1.4,1.2-1.5,3.4-0.3,4.8
				l12.3,13.8c1.2,1.4,3.4,1.5,4.8,0.3c0.4-0.3,0.6-0.7,0.8-1.1C316.6,322.9,314.9,322.6,313.9,321.4z"/>
			<path class="st13" d="M295,302.8l7.8,0.8c1.9,0.2,3.2,1.9,3,3.7l-0.2,2.2c-0.1,0.7-0.7,1.1-1.3,1.1l-10-1c-1.9-0.2-3.2-1.9-3-3.7
				l0,0C291.5,303.9,293.1,302.6,295,302.8z"/>
			<path class="st13" d="M297.6,306.7l-1,9c-0.2,1.9-1.9,3.2-3.7,3l0,0c-1.9-0.2-3.2-1.9-3-3.7l1-9c0.2-1.9,1.9-3.2,3.7-3l0,0
				C296.5,303.1,297.8,304.8,297.6,306.7z"/>
			<path class="st26" d="M312.3,312.8L300,299c-1.2-1.4-1.1-3.5,0.3-4.8l0,0c1.4-1.2,3.5-1.1,4.8,0.3l12.3,13.8
				c1.2,1.4,1.1,3.5-0.3,4.8l0,0C315.7,314.4,313.5,314.2,312.3,312.8z"/>
			<path class="st25" d="M313.5,310.3l-12.3-13.8c-0.6-0.6-0.8-1.5-0.8-2.3c0,0-0.1,0-0.1,0.1c-1.4,1.2-1.5,3.4-0.3,4.8l12.3,13.8
				c1.2,1.4,3.4,1.5,4.8,0.3c0.7-0.7,1.1-1.6,1.1-2.5C316.8,311.8,314.7,311.6,313.5,310.3z"/>
			<path class="st26" d="M294.7,292.7l7.8,0.8c1.9,0.2,3.2,1.9,3,3.7l0,0c-0.2,1.9-1.9,3.2-3.7,3l-7.8-0.8c-1.9-0.2-3.2-1.9-3-3.7
				l0,0C291.2,293.8,292.8,292.5,294.7,292.7z"/>
			<path class="st25" d="M292.2,314.8l1-9c0.1-1.3,1-2.4,2.2-2.8c-0.2-0.1-0.5-0.1-0.7-0.2c-1.9-0.2-3.5,1.1-3.7,3l-1,9
				c-0.2,1.9,1.1,3.5,3,3.7c0.5,0.1,1.1,0,1.5-0.2C293,317.9,292,316.4,292.2,314.8z"/>
			<path class="st26" d="M297.6,296.4l-1,9c-0.2,1.9-1.9,3.2-3.7,3l0,0c-1.9-0.2-3.2-1.9-3-3.7l1-9c0.2-1.9,1.9-3.2,3.7-3l0,0
				C296.5,292.9,297.8,294.5,297.6,296.4z"/>
			<path class="st25" d="M292.2,304.6l1-9c0.1-1.3,1-2.4,2.2-2.8c-0.2-0.1-0.5-0.1-0.7-0.2c-1.9-0.2-3.5,1.1-3.7,3l-1,9
				c-0.2,1.9,1.1,3.5,3,3.7c0.5,0.1,1.1,0,1.5-0.2C293,307.7,292,306.2,292.2,304.6z"/>
			<path class="st24" d="M319.1,301.9l-9.7-15.7c-1-1.6-0.5-3.7,1.1-4.7l0,0c1.6-1,3.7-0.5,4.7,1.1l9.7,15.7c1,1.6,0.5,3.7-1.1,4.7
				l0,0C322.1,303.9,320,303.5,319.1,301.9z"/>
			<path class="st24" d="M316.8,307.7l-12.3-13.8c-1.2-1.4-1.1-3.5,0.3-4.8h0c1.4-1.2,3.5-1.1,4.8,0.3l12.3,13.8
				c1.2,1.4,1.1,3.5-0.3,4.8l0,0C320.1,309.2,318,309.1,316.8,307.7z"/>
			<path class="st13" d="M319.8,306.8L307.5,293c-1.2-1.3-1.1-3.4,0.1-4.6c-1-0.2-2.1,0.1-2.9,0.8c-1.4,1.2-1.5,3.4-0.3,4.8
				l12.3,13.8c1.2,1.4,3.4,1.5,4.8,0.3c0.1,0,0.1-0.1,0.1-0.1C321,307.7,320.3,307.3,319.8,306.8z"/>
			<path class="st24" d="M303.7,277.4l9.3,3.4c1.8,0.6,2.7,2.6,2,4.3l0,0c-0.6,1.8-2.6,2.7-4.3,2l-9.3-3.4c-1.8-0.6-2.7-2.6-2-4.3
				l0,0C300,277.7,302,276.8,303.7,277.4z"/>
			<path class="st13" d="M299.4,287.3l7.8,0.8c1.9,0.2,3.2,1.9,3,3.7l-0.3,3.4l-11.2-1.2c-1.9-0.2-3.2-1.9-3-3.7l0,0
				C295.9,288.5,297.6,287.1,299.4,287.3z"/>
			<path class="st13" d="M302.1,291.2l-1,9c-0.2,1.9-1.9,3.2-3.7,3l0,0c-1.9-0.2-3.2-1.9-3-3.7l1-9c0.2-1.9,1.9-3.2,3.7-3l0,0
				C301,287.7,302.3,289.4,302.1,291.2z"/>
			<path class="st25" d="M300.3,302c-1.9-0.2-3.2-1.9-3-3.7l1-9c0.1-0.7,0.4-1.3,0.8-1.8c-1.9-0.2-3.5,1.1-3.7,3l-1,9
				c-0.2,1.9,1.1,3.5,3,3.7C298.5,303.3,299.6,302.8,300.3,302C300.3,302,300.3,302,300.3,302z"/>
			<path class="st24" d="M294.9,276l7.9,1.2c1.8,0.3,3.1,2,2.8,3.8l0,0c-0.3,1.8-2,3.1-3.8,2.8l-7.9-1.2c-1.8-0.3-3.1-2-2.8-3.8l0,0
				C291.3,277,293,275.7,294.9,276z"/>
			<path class="st13" d="M321.8,299.7l-9.4-15.1l-8-2.9l-7.8-1.2c-1.8-0.3-3.1-2-2.8-3.8c0-0.2,0.1-0.4,0.2-0.6
				c-1.5,0.2-2.7,1.3-2.9,2.8c-0.3,1.8,1,3.6,2.8,3.8l7.8,1.2l8,2.9l9.4,15.1c1,1.6,3.1,2.1,4.7,1.1h0c0.7-0.4,1.1-1,1.4-1.7
				C323.8,301.4,322.6,300.8,321.8,299.7z"/>
			<linearGradient id="SVGID_5_" gradientUnits="userSpaceOnUse" x1="382.6939" y1="367.1575" x2="443.0081" y2="367.1575">
				<stop  offset="0" style="stop-color:#4F6DF5"/>
				<stop  offset="0.23" style="stop-color:#4F6DF5"/>
				<stop  offset="0.52" style="stop-color:#4F73F5"/>
				<stop  offset="0.73" style="stop-color:#4F78F5"/>
				<stop  offset="1" style="stop-color:#4F82F5"/>
			</linearGradient>
			<polygon class="st27" points="412.5,403.4 382.7,387.2 413.2,331 443,347.1 			"/>
			<polygon class="st28" points="413.2,331 412.9,331.6 430.3,341.1 400.1,396.6 412.5,403.4 443,347.1 			"/>
			<polygon class="st25" points="389.5,388.7 419.1,334.2 413.2,331 382.7,387.2 412.5,403.4 413.4,401.7 			"/>
			<path class="st29" d="M404.8,399.2c-0.2-0.3-0.5-0.6-0.8-0.9l-5.7-6.2c-2.5-2.7-3-6.7-1.3-10c1.8-3.6,1.1-8.1-1.9-10.9l-2.5-2.3
				l-9.9,18.3L404.8,399.2z"/>
			<linearGradient id="SVGID_6_" gradientUnits="userSpaceOnUse" x1="316.7166" y1="371.4661" x2="404.0191" y2="371.4661">
				<stop  offset="0" style="stop-color:#4F6DF5"/>
				<stop  offset="0.23" style="stop-color:#4F6DF5"/>
				<stop  offset="0.52" style="stop-color:#4F73F5"/>
				<stop  offset="0.73" style="stop-color:#4F78F5"/>
				<stop  offset="1" style="stop-color:#4F82F5"/>
			</linearGradient>
			<path class="st30" d="M337.5,321.8l53.7,50.3c3,2.8,3.8,7.2,1.9,10.9l0,0c-1.7,3.3-1.1,7.2,1.3,10l5.7,6.2c2.5,2.7,3.9,6.3,4,10
				l-21.3,11.9l-66-89.4L337.5,321.8z"/>
			<path class="st25" d="M391,414.6l-64.6-87.5l-9.7,4.6l66,89.4l21.3-11.9c0-0.6-0.1-1.2-0.2-1.8L391,414.6z"/>
			<path class="st26" d="M385.3,386h-21.7c-1.9,0-3.4-1.5-3.4-3.4l0,0c0-1.9,1.5-3.4,3.4-3.4h21.7c1.9,0,3.4,1.5,3.4,3.4l0,0
				C388.7,384.5,387.2,386,385.3,386z"/>
			<path class="st26" d="M366,385l-12,12c-1.3,1.3-3.5,1.3-4.8,0l0,0c-1.3-1.3-1.3-3.5,0-4.8l12-12c1.3-1.3,3.5-1.3,4.8,0l0,0
				C367.3,381.6,367.3,383.7,366,385z"/>
			<path class="st25" d="M353.2,397c-1.3-1.3-1.3-3.5,0-4.8l12-12c0.2-0.2,0.3-0.3,0.5-0.4c0.1-0.1,0.2-0.1,0.3-0.1
				c0.1-0.1,0.2-0.1,0.3-0.2c0.1,0,0.2-0.1,0.3-0.1c0.1,0,0.2-0.1,0.3-0.1c0.2,0,0.4-0.1,0.7-0.1h-4c-0.2,0-0.4,0-0.7,0.1
				c-0.1,0-0.2,0.1-0.3,0.1c-0.1,0-0.2,0.1-0.3,0.1c-0.1,0-0.2,0.1-0.3,0.2c-0.1,0-0.2,0.1-0.3,0.1c-0.2,0.1-0.4,0.3-0.5,0.4l-12,12
				c-1.3,1.3-1.3,3.5,0,4.8c1.2,1.2,3,1.3,4.4,0.3C353.5,397.3,353.3,397.2,353.2,397z"/>
			<path class="st24" d="M384.8,387.7h-14.5c-1.9,0-3.4-1.5-3.4-3.4l0,0c0-1.9,1.5-3.4,3.4-3.4h14.5c1.9,0,3.4,1.5,3.4,3.4l0,0
				C388.2,386.2,386.7,387.7,384.8,387.7z"/>
			<path class="st26" d="M386.1,394.4h-14.5c-1.9,0-3.4-1.5-3.4-3.4l0,0c0-1.9,1.5-3.4,3.4-3.4h14.5c1.9,0,3.4,1.5,3.4,3.4l0,0
				C389.5,392.8,388,394.4,386.1,394.4z"/>
			<path class="st24" d="M372.7,386.7l-12,12c-1.3,1.3-3.5,1.3-4.8,0l0,0c-1.3-1.3-1.3-3.5,0-4.8l12-12c1.3-1.3,3.5-1.3,4.8,0l0,0
				C374.1,383.3,374.1,385.4,372.7,386.7z"/>
			<path class="st25" d="M359.5,398.7c-1.3-1.3-1.3-3.5,0-4.8l12-12c0.7-0.7,1.5-1,2.4-1c0,0,0,0,0,0h-3.5c0,0,0,0,0,0
				c-0.9,0-1.7,0.3-2.4,1l-12,12c-1.3,1.3-1.3,3.5,0,4.8c1.1,1.1,2.8,1.3,4.1,0.5C359.9,399.1,359.7,398.9,359.5,398.7z"/>
			<linearGradient id="SVGID_7_" gradientUnits="userSpaceOnUse" x1="440.5266" y1="372.6412" x2="559.1204" y2="372.6412">
				<stop  offset="0" style="stop-color:#4F6DF5"/>
				<stop  offset="0.23" style="stop-color:#4F6DF5"/>
				<stop  offset="0.52" style="stop-color:#4F73F5"/>
				<stop  offset="0.73" style="stop-color:#4F78F5"/>
				<stop  offset="1" style="stop-color:#4F82F5"/>
			</linearGradient>
			<polygon class="st31" points="545.1,404.9 440.5,404.9 440.5,340.4 559.1,340.4 545.1,382.7 			"/>
			<path class="st29" d="M426.2,338L426.2,338l-13-7l-3.9,7.1c2.6,7.7,8.9,13.8,16.8,15.9v6.8c0,4,1.3,7.8,3.5,10.8l13.3-24.5
				L426.2,338z"/>
			<linearGradient id="SVGID_8_" gradientUnits="userSpaceOnUse" x1="412.4974" y1="326.4498" x2="461.1403" y2="326.4498">
				<stop  offset="0" style="stop-color:#4F6DF5"/>
				<stop  offset="0.23" style="stop-color:#4F6DF5"/>
				<stop  offset="0.52" style="stop-color:#4F73F5"/>
				<stop  offset="0.73" style="stop-color:#4F78F5"/>
				<stop  offset="1" style="stop-color:#4F82F5"/>
			</linearGradient>
			<circle class="st32" cx="436.8" cy="326.4" r="24.3"/>
			
				<ellipse transform="matrix(0.9231 -0.3847 0.3847 0.9231 -89.0588 190.0952)" class="st33" cx="430.7" cy="317.7" rx="9.1" ry="9.1"/>
			<path class="st25" d="M440.3,346.8c-13.4,0-24.3-10.9-24.3-24.3c0-5.2,1.6-9.9,4.3-13.9c-4.8,4.4-7.8,10.8-7.8,17.9
				c0,13.4,10.9,24.3,24.3,24.3c8.3,0,15.6-4.1,20-10.5C452.5,344.3,446.7,346.8,440.3,346.8z"/>
			<path class="st28" d="M436.8,339.6c-11.5,0-21.1-8-23.7-18.7c-0.4,1.8-0.7,3.7-0.7,5.6c0,13.4,10.9,24.3,24.3,24.3
				c13.4,0,24.3-10.9,24.3-24.3c0-1.9-0.2-3.8-0.7-5.6C458,331.6,448.3,339.6,436.8,339.6z"/>
			<path class="st29" d="M556.3,340.4H440.5v38.1c0.4,0.2,0.9,0.3,1.3,0.5l0,0c25.1,8,51.9,9.3,77.7,3.8l4.7-1
				c18.7-4,32-20.5,32-39.6V340.4z"/>
			<linearGradient id="SVGID_9_" gradientUnits="userSpaceOnUse" x1="429.0043" y1="338.1831" x2="556.2838" y2="338.1831">
				<stop  offset="0" style="stop-color:#4F6DF5"/>
				<stop  offset="0.23" style="stop-color:#4F6DF5"/>
				<stop  offset="0.52" style="stop-color:#4F73F5"/>
				<stop  offset="0.73" style="stop-color:#4F78F5"/>
				<stop  offset="1" style="stop-color:#4F82F5"/>
			</linearGradient>
			<path class="st34" d="M524.3,378.8l-4.7,1c-25.8,5.5-52.6,4.2-77.7-3.8h0c-7.6-2.4-12.8-9.5-12.8-17.5V324
				c0-17,13.8-30.8,30.8-30.8h68.2c15.6,0,28.2,12.6,28.2,28.2v17.9C556.3,358.3,543,374.8,524.3,378.8z"/>
			<path class="st28" d="M528.1,293.2h-18.7l-15.2,9h54.5C543.5,296.6,536.2,293.2,528.1,293.2z"/>
			<g class="st28">
				<path d="M467.7,382c-6.5-49.5,16.9-82.2,17.2-82.5l1.5,1.1c-0.2,0.3-23.2,32.5-16.8,81.2L467.7,382z"/>
			</g>
			<rect x="495.5" y="344.6" class="st2" width="21.8" height="4"/>
			<rect x="495.5" y="350.8" class="st2" width="21.8" height="7.4"/>
			<path class="st28" d="M539.8,295.7c1,2.9,1.6,6.1,1.6,9.3v17.9c0,19.1-13.3,35.6-32,39.6l-4.7,1c-25.1,5.4-51,4.3-75.5-3.1
				c0.7,7.2,5.7,13.4,12.7,15.7h0c25.1,8,51.9,9.3,77.7,3.8l4.7-1c18.7-4,32-20.5,32-39.6v-17.9C556.3,310,549.5,300.2,539.8,295.7z
				"/>
			<path class="st25" d="M446.8,376L446.8,376c-7.6-2.4-12.8-9.5-12.8-17.5V324c0-17,13.8-30.8,30.8-30.8h-5
				c-17,0-30.8,13.8-30.8,30.8v34.5c0,8,5.2,15.1,12.8,17.5h0c15.7,5,32.1,7.4,48.5,7.1C475.6,382.9,460.9,380.6,446.8,376z"/>
			<path class="st13" d="M504,302.1h-27.1c-4.5,0-8.1-3.6-8.1-8.1v-25.1h43.3V294C512.2,298.5,508.5,302.1,504,302.1z"/>
			<path class="st28" d="M503,268.9v24.5c0,4.8-3.9,8.8-8.8,8.8h9.2c4.8,0,8.8-3.9,8.8-8.8v-24.5H503z"/>
			<path class="st25" d="M471.7,293.4v-24.5h-2.8v24.5c0,4.8,3.9,8.8,8.8,8.8h2.8C475.6,302.1,471.7,298.2,471.7,293.4z"/>
			<linearGradient id="SVGID_10_" gradientUnits="userSpaceOnUse" x1="441.3992" y1="200.0601" x2="498.6158" y2="200.0601">
				<stop  offset="0" style="stop-color:#000000"/>
				<stop  offset="0.52" style="stop-color:#323232"/>
				<stop  offset="1" style="stop-color:#646464"/>
			</linearGradient>
			<path class="st35" d="M456,229.8c0,0-4.1-29.3,1.3-41.5c5.4-12.1,22.9-16,36.5-15c13.7,1-6.6-6.5-6.6-6.5s-30.5-2.3-41,21.5
				c-8.1,18.4-3.7,44.9-3.7,44.9L456,229.8z"/>
			<g>
				<linearGradient id="SVGID_11_" gradientUnits="userSpaceOnUse" x1="436.8189" y1="235.6135" x2="465.1031" y2="235.6135">
					<stop  offset="0" style="stop-color:#000000"/>
					<stop  offset="0.52" style="stop-color:#323232"/>
					<stop  offset="1" style="stop-color:#646464"/>
				</linearGradient>
				<path class="st36" d="M465.1,235.6c0-7.9-4.4-14.5-10.4-16.5v-0.6H451c-7.8,0-14.1,7.7-14.1,17.1s6.3,17.1,14.1,17.1h3.7v-0.6
					C460.7,250.1,465.1,243.5,465.1,235.6z"/>
				<linearGradient id="SVGID_12_" gradientUnits="userSpaceOnUse" x1="440.5486" y1="235.6136" x2="468.8329" y2="235.6136">
					<stop  offset="0" style="stop-color:#000000"/>
					<stop  offset="0.52" style="stop-color:#323232"/>
					<stop  offset="1" style="stop-color:#646464"/>
				</linearGradient>
				<ellipse class="st37" cx="454.7" cy="235.6" rx="14.1" ry="17.1"/>
			</g>
			<path class="st29" d="M468.8,283.8c0.2,0,0.5,0,0.7,0h13.5c11,0,21.1-3.8,29.1-10.1v-4.9h-43.3V283.8z"/>
			<path class="st13" d="M487.7,280.4h-20.6c-12.5,0-22.7-10.2-22.7-22.7v-46.5c0-21.4,17.3-38.7,38.7-38.7h8.4
				c21.4,0,38.7,17.3,38.7,38.7v26.7C530.2,261.4,511.2,280.4,487.7,280.4z"/>
			<path class="st28" d="M503.2,202.3c-2.5,14.4,3.1,30.7-1.7,36.6c-4.8,5.9,1,16.1-3.1,27.4c-2.3,6.3-7.2,11-11.2,13.9
				c24.1-2.1,43-22.3,43-46.9v-17.9c0-10.9-4-20.8-10.7-28.3C513.5,188.9,504.8,193,503.2,202.3z"/>
			<path class="st2" d="M485.7,272.3h-24.2v6.8c2.5,0.9,5.3,1.3,8.1,1.3h13.5c0.9,0,1.7,0,2.6-0.1V272.3z"/>
			<path class="st28" d="M500.9,174.7c13,7.4,21.7,21.3,21.7,37.3v17.9c0,26-21.1,47.1-47.1,47.1H462c-2.2,0-4.3-0.3-6.4-0.9
				c4,2.7,8.8,4.2,14,4.2h13.5c26,0,47.1-21.1,47.1-47.1v-17.9C530.2,196.5,517.9,180.4,500.9,174.7z"/>
			<path class="st25" d="M447.6,255.2v-39.8c0-23.2,18.3-42,41.3-42.9c-0.5,0-1.1,0-1.6,0l0,0c-23.7,0-42.9,19.2-42.9,42.9v39.8
				c0,13.9,11.3,25.2,25.2,25.2h3.2C458.9,280.4,447.6,269.1,447.6,255.2z"/>
			<path class="st2" d="M487.3,172.5L487.3,172.5c-4.2,0-8.3,0.6-12.2,1.8c-8.6,7.5-13.6,18.3-13.6,29.9h23.6
				c0-11.7,5.1-22.6,13.8-30.1C495.2,173.1,491.3,172.5,487.3,172.5z"/>
			<path class="st29" d="M530.2,221c-1.3-0.5-2.6-0.7-4-0.7h-3.7c-7.8,0-14.1,7.7-14.1,17.1c0,9.4,6.3,17.1,14.1,17.1h2.7
				c3.2-6.4,5.1-13.6,5.1-21.2V221z"/>
			<path class="st29" d="M522.4,247.7c-0.5-0.5-1.4-0.5-2,0l-14.1,14.1c-1,1-2.5,1.6-3.9,1.6h-7c-0.5-1.3-1.8-2.2-3.2-2.2
				c-0.2,0-0.4,0-0.6,0.1c-0.2,0-0.4-0.1-0.6-0.1h-7.1c-1.9,0-3.5,1.6-3.5,3.5c0,1.9,1.6,3.5,3.5,3.5h7.1c0.2,0,0.4,0,0.6-0.1
				c0.2,0,0.4,0.1,0.6,0.1c1.4,0,2.6-0.8,3.2-2h7.1c2.2,0,4.3-0.9,5.9-2.4l14.1-14.1C522.9,249.2,522.9,248.3,522.4,247.7z"/>
			<linearGradient id="SVGID_13_" gradientUnits="userSpaceOnUse" x1="508.2909" y1="235.6135" x2="536.5751" y2="235.6135">
				<stop  offset="0" style="stop-color:#000000"/>
				<stop  offset="0.52" style="stop-color:#323232"/>
				<stop  offset="1" style="stop-color:#646464"/>
			</linearGradient>
			<path class="st38" d="M536.6,235.6c0-7.9-4.4-14.5-10.4-16.5v-0.6h-3.7c-7.8,0-14.1,7.7-14.1,17.1s6.3,17.1,14.1,17.1h3.7v-0.6
				C532.2,250.1,536.6,243.5,536.6,235.6z"/>
			<linearGradient id="SVGID_14_" gradientUnits="userSpaceOnUse" x1="512.0206" y1="235.6136" x2="540.305" y2="235.6136">
				<stop  offset="0" style="stop-color:#000000"/>
				<stop  offset="0.52" style="stop-color:#323232"/>
				<stop  offset="1" style="stop-color:#646464"/>
			</linearGradient>
			<ellipse class="st39" cx="526.2" cy="235.6" rx="14.1" ry="17.1"/>
			<linearGradient id="SVGID_15_" gradientUnits="userSpaceOnUse" x1="530.9203" y1="200.0906" x2="474.4119" y2="200.0906">
				<stop  offset="0" style="stop-color:#000000"/>
				<stop  offset="0.52" style="stop-color:#323232"/>
				<stop  offset="1" style="stop-color:#646464"/>
			</linearGradient>
			<path class="st40" d="M530.2,233.3c-7.5-1.9-12.6-8.9-12.2-16.7c0.5-9.4,0.5-21.5-2.6-28.2c-5.4-12.1-22.9-16-36.5-15
				c-13.7,1,8.4-6.5,8.4-6.5s31.2,0,39.2,21.5C533.4,207.2,530.2,233.3,530.2,233.3L530.2,233.3z"/>
			<path class="st6" d="M535.6,235.6c0-4.8-2.5-8.9-6.1-10.5v-0.7h-3.3c-5.1,0-9.3,5-9.3,11.3s4.2,11.3,9.3,11.3h3.3v-0.7
				C533.1,244.6,535.6,240.4,535.6,235.6z"/>
			<ellipse class="st7" cx="529.5" cy="235.6" rx="9.3" ry="11.3"/>
			<path class="st29" d="M535.9,227.4c1.3,1.9,2,4.3,2,7c0,6.2-4.2,11.3-9.3,11.3c-2.4,0-4.7-1.1-6.3-3c1.7,2.6,4.3,4.3,7.3,4.3
				c5.1,0,9.3-5,9.3-11.3C538.9,232.3,537.7,229.4,535.9,227.4z"/>
			<linearGradient id="SVGID_16_" gradientUnits="userSpaceOnUse" x1="480.1956" y1="259.8573" x2="494.2989" y2="259.8573">
				<stop  offset="0" style="stop-color:#000000"/>
				<stop  offset="0.52" style="stop-color:#323232"/>
				<stop  offset="1" style="stop-color:#646464"/>
			</linearGradient>
			<path class="st41" d="M490.8,263.4h-7.1c-1.9,0-3.5-1.6-3.5-3.5l0,0c0-1.9,1.6-3.5,3.5-3.5h7.1c1.9,0,3.5,1.6,3.5,3.5l0,0
				C494.3,261.8,492.7,263.4,490.8,263.4z"/>
			<linearGradient id="SVGID_17_" gradientUnits="userSpaceOnUse" x1="488.5875" y1="259.8573" x2="495.5809" y2="259.8573">
				<stop  offset="0" style="stop-color:#000000"/>
				<stop  offset="0.52" style="stop-color:#323232"/>
				<stop  offset="1" style="stop-color:#646464"/>
			</linearGradient>
			<path class="st42" d="M492.1,263.4L492.1,263.4c-1.9,0-3.5-1.6-3.5-3.5l0,0c0-1.9,1.6-3.5,3.5-3.5l0,0c1.9,0,3.5,1.6,3.5,3.5l0,0
				C495.6,261.8,494,263.4,492.1,263.4z"/>
			<g>
				<linearGradient id="SVGID_18_" gradientUnits="userSpaceOnUse" x1="491.9293" y1="251.8537" x2="522.7767" y2="251.8537">
					<stop  offset="0" style="stop-color:#000000"/>
					<stop  offset="0.52" style="stop-color:#323232"/>
					<stop  offset="1" style="stop-color:#646464"/>
				</linearGradient>
				<path class="st43" d="M502.3,261.3h-9c-0.8,0-1.4-0.6-1.4-1.4s0.6-1.4,1.4-1.4h9c1.5,0,2.9-0.6,3.9-1.6l14.1-14.1
					c0.5-0.5,1.4-0.5,2,0c0.5,0.5,0.5,1.4,0,2l-14.1,14.1C506.7,260.4,504.5,261.3,502.3,261.3z"/>
			</g>
			<linearGradient id="SVGID_19_" gradientUnits="userSpaceOnUse" x1="503.1816" y1="372.6412" x2="556.3652" y2="372.6412">
				<stop  offset="0" style="stop-color:#4F6DF5"/>
				<stop  offset="0.23" style="stop-color:#4F6DF5"/>
				<stop  offset="0.52" style="stop-color:#4F73F5"/>
				<stop  offset="0.73" style="stop-color:#4F78F5"/>
				<stop  offset="1" style="stop-color:#4F82F5"/>
			</linearGradient>
			<polygon class="st44" points="545.1,384.8 545.1,382.7 556.4,348.7 541.1,340.4 530.6,340.4 503.2,391 528.8,404.9 534.2,404.9 
							"/>
			<linearGradient id="SVGID_20_" gradientUnits="userSpaceOnUse" x1="499.5134" y1="367.8086" x2="559.1204" y2="367.8086">
				<stop  offset="0" style="stop-color:#4F6DF5"/>
				<stop  offset="0.23" style="stop-color:#4F6DF5"/>
				<stop  offset="0.52" style="stop-color:#4F73F5"/>
				<stop  offset="0.73" style="stop-color:#4F78F5"/>
				<stop  offset="1" style="stop-color:#4F82F5"/>
			</linearGradient>
			<polygon class="st45" points="529.3,403.4 499.5,387.2 529.3,332.3 559.1,348.4 			"/>
			
				<rect x="533.6" y="346" transform="matrix(0.8787 0.4773 -0.4773 0.8787 234.6728 -215.0359)" class="st2" width="13.8" height="16.7"/>
			<polygon class="st28" points="529.3,332.3 528.3,334.2 547.2,344.5 518.4,397.4 529.3,403.4 559.1,348.4 			"/>
			<polygon class="st25" points="505.6,390 535.2,335.4 529.3,332.3 499.5,387.2 529.3,403.4 529.5,403 			"/>
			<path class="st29" d="M525.3,339.7c3.7,8.6,12.3,14.7,22.3,14.7c3.3,0,6.4-0.7,9.2-1.8l2.2-4.1l-29.8-16.2L525.3,339.7z"/>
			<linearGradient id="SVGID_21_" gradientUnits="userSpaceOnUse" x1="524.7358" y1="326.4498" x2="573.3787" y2="326.4498">
				<stop  offset="0" style="stop-color:#4F6DF5"/>
				<stop  offset="0.23" style="stop-color:#4F6DF5"/>
				<stop  offset="0.52" style="stop-color:#4F73F5"/>
				<stop  offset="0.73" style="stop-color:#4F78F5"/>
				<stop  offset="1" style="stop-color:#4F82F5"/>
			</linearGradient>
			<circle class="st46" cx="549.1" cy="326.4" r="24.3"/>
			<path class="st25" d="M530.6,326.4c0-12.4,9.3-22.7,21.4-24.1c-1-0.1-1.9-0.2-2.9-0.2c-13.4,0-24.3,10.9-24.3,24.3
				c0,13.4,10.9,24.3,24.3,24.3c1,0,2-0.1,2.9-0.2C539.9,349.2,530.6,338.9,530.6,326.4z"/>
			<path class="st29" d="M518.8,388.2c-3.7,0-7-2.3-8.3-5.7c-1-2.6-3.1-4.5-5.6-5.4l-5.5,10l27.7,15h2.7L536,391
				c-2.6-1.8-5.6-2.8-8.8-2.8H518.8z"/>
			<linearGradient id="SVGID_22_" gradientUnits="userSpaceOnUse" x1="423.8758" y1="392.0632" x2="545.0944" y2="392.0632">
				<stop  offset="0" style="stop-color:#4F6DF5"/>
				<stop  offset="0.23" style="stop-color:#4F6DF5"/>
				<stop  offset="0.52" style="stop-color:#4F73F5"/>
				<stop  offset="0.73" style="stop-color:#4F78F5"/>
				<stop  offset="1" style="stop-color:#4F82F5"/>
			</linearGradient>
			<path class="st47" d="M423.9,385.3l73.4-6c4.1-0.3,7.9,2.1,9.3,5.9l0,0c1.3,3.4,4.6,5.7,8.3,5.7h8.4c3.7,0,7.3,1.3,10,3.8
				l11.8,10.2H423.9V385.3z"/>
			<polygon class="st28" points="423.9,395.4 423.9,404.9 545.1,404.9 534.3,395.4 			"/>
			<polygon class="st48" points="423.9,385.3 385.3,379.3 385.3,394.4 404.6,404.9 423.9,404.9 			"/>
			<path class="st26" d="M375,392l-2.9,9.7c-0.5,1.8-2.4,2.8-4.2,2.3l0,0c-1.8-0.5-2.8-2.4-2.3-4.2l2.9-9.7c0.5-1.8,2.4-2.8,4.2-2.3
				l0,0C374.5,388.3,375.5,390.2,375,392z"/>
			<path class="st25" d="M368.4,399.8l2.8-9.2c0.2-1.6,1.4-2.8,3-3c0.1,0,0.1,0,0.2,0c0.1,0,0.1,0,0.2,0h-2.9c-0.1,0-0.1,0-0.2,0
				c-0.1,0-0.1,0-0.2,0c-1.6,0.2-2.8,1.4-3,3l-2.8,9.2c-0.5,1.8,0.5,3.7,2.3,4.2c0.8,0.3,1.7,0.2,2.4-0.2
				C368.7,403.1,367.9,401.4,368.4,399.8z"/>
			<polygon class="st13" points="337.5,321.8 333.1,304.4 324.4,297.6 304,313.7 316.7,331.7 			"/>
			<path class="st26" d="M326.6,307.2l-1.7-11.6c-0.3-1.8,1-3.6,2.8-3.8l0,0c1.8-0.3,3.6,1,3.8,2.8l1.7,11.6c0.3,1.8-1,3.6-2.8,3.8
				l0,0C328.6,310.3,326.9,309,326.6,307.2z"/>
			<path class="st26" d="M317.1,289.4l11.5,2.1c1.8,0.3,3.1,2.1,2.7,3.9v0c-0.3,1.8-2.1,3.1-3.9,2.7l-11.5-2.1
				c-1.8-0.3-3.1-2.1-2.7-3.9v0C313.5,290.3,315.3,289.1,317.1,289.4z"/>
			<path class="st13" d="M329.8,305.1l-1.4-9.4l-9.4-1.7c-1.8-0.3-3.1-2.1-2.7-3.9c0-0.2,0.1-0.5,0.2-0.7c-1.6,0-3.1,1.1-3.4,2.8
				c-0.3,1.8,0.9,3.6,2.7,3.9l9.4,1.7l1.4,9.4c0.3,1.8,2,3.1,3.8,2.8c1.2-0.2,2.2-1,2.6-2.1C331.5,307.9,330.1,306.7,329.8,305.1z"
				/>
			<ellipse class="st49" cx="292.2" cy="278.9" rx="9.2" ry="13.7"/>
			<ellipse class="st49" cx="292.2" cy="278.9" rx="5.2" ry="7.7"/>
			<rect x="247.9" y="271.2" class="st49" width="31" height="6"/>
			<rect x="254.7" y="313.9" class="st49" width="31" height="6"/>
			<rect x="315.9" y="344.8" class="st49" width="31" height="6"/>
			<rect x="254.7" y="282.3" class="st49" width="24.2" height="3.2"/>
			<rect x="254.7" y="323.8" class="st49" width="24.2" height="3.2"/>
			<rect x="315.3" y="355.2" class="st49" width="24.2" height="3.2"/>
			<rect x="254.7" y="330.5" class="st49" width="24.2" height="3.2"/>
			<rect x="254.7" y="337.2" class="st49" width="13.5" height="3.2"/>
			<rect x="351.6" y="327.3" class="st49" width="8.8" height="1.5"/>
			<rect x="351.6" y="329.6" class="st49" width="6.5" height="0.9"/>
			<polygon class="st25" points="338.4,300.4 333.6,319.1 349.3,328 366.6,312.6 346.5,310.9 			"/>
			<polygon class="st50" points="338.4,300.4 333.6,319.1 349.3,328 366.6,312.6 346.5,310.9 			"/>
			<path class="st49" d="M339.3,300.4c0,0.8-0.5,1.5-1,1.5c-0.6,0-1-0.7-1-1.5c0-0.8,0.5-1.5,1-1.5
				C338.9,298.9,339.3,299.6,339.3,300.4z"/>
			<path class="st49" d="M347.5,310.8c0,0.8-0.5,1.5-1,1.5c-0.6,0-1-0.7-1-1.5c0-0.8,0.5-1.5,1-1.5C347,309.3,347.5,310,347.5,310.8
				z"/>
			<ellipse class="st49" cx="346.5" cy="316.8" rx="1" ry="1.5"/>
			<ellipse class="st49" cx="366.6" cy="312.7" rx="1" ry="1.5"/>
			<ellipse class="st49" cx="349.4" cy="328" rx="1" ry="1.5"/>
			<path class="st49" d="M334.7,319.1c0,0.8-0.5,1.5-1,1.5c-0.6,0-1-0.7-1-1.5c0-0.8,0.5-1.5,1-1.5
				C334.2,317.6,334.7,318.3,334.7,319.1z"/>
			<rect x="368.7" y="311.2" class="st49" width="8.8" height="1.5"/>
			<rect x="368.7" y="313.5" class="st49" width="6.5" height="0.9"/>
			<rect x="348.3" y="306.1" class="st49" width="8.8" height="1.5"/>
			<rect x="348.3" y="308.4" class="st49" width="6.5" height="0.9"/>
			
				<rect x="327" y="298.8" transform="matrix(-1 -1.224647e-16 1.224647e-16 -1 662.7115 599.2082)" class="st49" width="8.8" height="1.5"/>
			
				<rect x="329.2" y="301.1" transform="matrix(-1 -1.224647e-16 1.224647e-16 -1 664.9648 603.1376)" class="st49" width="6.5" height="0.9"/>
			
				<rect x="322.6" y="318.1" transform="matrix(-1 -1.224647e-16 1.224647e-16 -1 653.9468 637.8064)" class="st49" width="8.8" height="1.5"/>
			
				<rect x="324.8" y="320.4" transform="matrix(-1 -1.224647e-16 1.224647e-16 -1 656.2003 641.7358)" class="st49" width="6.5" height="0.9"/>
			<polyline class="st50" points="346.5,310.8 346.5,316.8 338.3,300.4 			"/>
			<polyline class="st50" points="333.6,319.1 346.5,316.8 349.4,328 			"/>
			<line class="st50" x1="346.5" y1="316.8" x2="366.6" y2="312.7"/>
			<linearGradient id="SVGID_23_" gradientUnits="userSpaceOnUse" x1="297.3472" y1="226.4445" x2="297.3472" y2="404.1087">
				<stop  offset="0" style="stop-color:#00E7ED;stop-opacity:0"/>
				<stop  offset="0.1676" style="stop-color:#11D1EF;stop-opacity:0.1676"/>
				<stop  offset="0.5386" style="stop-color:#33A6F2;stop-opacity:0.5386"/>
				<stop  offset="0.8286" style="stop-color:#478CF4;stop-opacity:0.8286"/>
				<stop  offset="1" style="stop-color:#4F82F5"/>
			</linearGradient>
			<polygon class="st51" points="297.3,226.4 176.4,226.4 233.3,404.1 297.3,404.1 361.4,404.1 418.3,226.4 			"/>
			<polygon class="st25" points="326.4,327.1 311.7,307.7 304,313.7 316.7,331.7 			"/>
			<path class="st25" d="M497.6,383.2c3.4-0.5,6.5,0.5,8.9,1.7c-1.5-3.6-5.2-5.9-9.2-5.6l-73.4,6l-38.6-6l38.6,9.3
				C423.9,388.6,490.4,384.1,497.6,383.2z"/>
			<rect x="224.4" y="314" class="st49" width="27" height="33.8"/>
			<rect x="270.2" y="354.6" class="st49" width="27" height="33.8"/>
			<path class="st28" d="M549.1,339.6c-11.5,0-21.1-8-23.7-18.7c-0.4,1.8-0.7,3.7-0.7,5.6c0,13.4,10.9,24.3,24.3,24.3
				c13.4,0,24.3-10.9,24.3-24.3c0-1.9-0.2-3.8-0.7-5.6C570.2,331.6,560.6,339.6,549.1,339.6z"/>
			<polygon class="st28" points="423.9,395.4 385.3,390.3 374.2,394.4 385.3,394.4 404.6,404.9 423.9,404.9 			"/>
			
				<ellipse transform="matrix(0.9231 -0.3847 0.3847 0.9231 -79.903 235.8687)" class="st33" cx="549.7" cy="317.7" rx="9.1" ry="9.1"/>
			<circle class="st52" cx="450.6" cy="315.3" r="9.1"/>
			<path class="st52" d="M448.8,331c0,3.2-2.6,5.8-5.8,5.8c-3.2,0-5.8-2.6-5.8-5.8c0-3.2,2.6-5.8,5.8-5.8
				C446.2,325.2,448.8,327.8,448.8,331z"/>
			<circle class="st33" cx="463.5" cy="200.1" r="9.1"/>
			<rect x="333" y="395.5" class="st53" width="49.7" height="9"/>
			<rect x="219.1" y="395.5" class="st54" width="113.9" height="9"/>
			<rect x="523.5" y="233.3" class="st6" width="13" height="2.3"/>
		</g>
		<path class="st1" d="M560.7,422.6H226.6c-5.1,0-9.2-4.1-9.2-9.2l0,0c0-5.1,4.1-9.2,9.2-9.2h334.1c5.1,0,9.2,4.1,9.2,9.2l0,0
			C569.9,418.4,565.8,422.6,560.7,422.6z"/>
		<path class="st55" d="M550,433.3H237.3c-5.9,0-10.7-4.8-10.7-10.7l0,0h334.1l0,0C560.7,428.5,555.9,433.3,550,433.3z"/>
	</g>
</g>
</svg>
