<?xml version="1.0" encoding="utf-8"?>
<!-- Generator: Adobe Illustrator 22.0.1, SVG Export Plug-In . SVG Version: 6.00 Build 0)  -->
<svg version="1.1" id="Layer_1" xmlns="http://www.w3.org/2000/svg" xmlns:xlink="http://www.w3.org/1999/xlink" x="0px" y="0px"
	 viewBox="0 0 760 520" style="enable-background:new 0 0 760 520;" xml:space="preserve">
<style type="text/css">
	.st0{fill:#E6FCFC;}
	.st1{fill:url(#SVGID_1_);}
	.st2{fill:#A5CACC;}
	.st3{fill:#A9AAA9;}
	.st4{fill:#E2A893;}
	.st5{fill:#FFC600;}
	.st6{fill:#FFAF00;}
	.st7{fill:#131533;}
	.st8{fill:url(#XMLID_2_);}
	.st9{fill:#FFFFFF;}
	.st10{fill:url(#SVGID_2_);}
	.st11{fill:#272525;}
	.st12{fill:#E29993;}
	.st13{fill:#CF9166;}
	.st14{fill:url(#SVGID_3_);}
	.st15{fill:url(#SVGID_4_);}
	.st16{fill:url(#SVGID_5_);}
	.st17{fill:url(#SVGID_6_);}
	.st18{fill:#273C3D;}
	.st19{fill:#162323;}
	.st20{fill:#A0D6F2;}
	.st21{fill:#323232;}
	.st22{fill:none;}
	.st23{fill:#4FAFF5;}
	.st24{fill:#E1FBFC;}
	.st25{fill:#00AF00;}
	.st26{fill:#908FA1;}
	.st27{fill:url(#SVGID_7_);}
	.st28{fill:#EF5E65;}
	.st29{fill:#EE383B;}
	.st30{fill:#E4C494;}
	.st31{fill:#040607;}
	.st32{fill:#BEBEBD;}
	.st33{fill:#7F7F7D;}
	.st34{fill:url(#SVGID_8_);}
	.st35{fill:#36B04A;}
	.st36{fill:#FFFFF9;}
	.st37{fill:#3A4C84;}
	.st38{fill:#105F65;}
</style>
<g>
	<path class="st0" d="M118.7,85.3c8.1-10.2,18.9-18,31.2-22.4l29.1-10.4l37.8-15.8c16.9-7.1,34.3-13.1,51.9-18.2l21.7-6.2
		c34.8-9.9,71-13.9,107.1-10.9c24.9,2,50.5,7.4,67.1,19.5c0,0,135.4,87.1,176.5,144.7c3.9,5.5,7.9,10.9,12.2,16
		c9.5,11.3,26.9,36.8,32.8,77.1c4.7,32.2,0.5,65-11.3,95.3L639,445.4c-17.3,44.2-59.7,73.9-107.2,74c-0.9,0-1.9,0-2.8,0H266.6
		c0,0-95.4-3.9-133.2-52.6c-2.7-3.5-5.6-6.9-8.7-10.1c-15.6-16.4-62.5-75.2-51-177.6l19-140.2C92.6,139,97.6,111.9,118.7,85.3z"/>
	<g>
		<linearGradient id="SVGID_1_" gradientUnits="userSpaceOnUse" x1="634.1057" y1="260.4539" x2="678.247" y2="260.4539">
			<stop  offset="0" style="stop-color:#4F6DF5"/>
			<stop  offset="0.23" style="stop-color:#4F6DF5"/>
			<stop  offset="0.52" style="stop-color:#4F73F5"/>
			<stop  offset="0.73" style="stop-color:#4F82F5"/>
			<stop  offset="1" style="stop-color:#4FA0F5"/>
		</linearGradient>
		<path class="st1" d="M651.8,227l22.5,32c7.3,10.3,4.4,24.7-6.2,31.5l-5.3,3.4l-9.3-24.5l-19.2-34.7L651.8,227"/>
		<path class="st2" d="M616.7,474.2c0,6-4.8,10.8-10.8,10.8H146.2c-6,0-10.8-4.8-10.8-10.8v-1.5c0-6,4.8-10.8,10.8-10.8h459.7
			c6,0,10.8,4.8,10.8,10.8V474.2z"/>
		<g>
			<g>
				<path class="st3" d="M177.3,335.1c-0.8-0.2-1.7-0.5-2.5-0.7l0.5-1.7c0.8,0.2,1.6,0.5,2.5,0.7L177.3,335.1z"/>
			</g>
			<g>
				<path class="st3" d="M169.8,332.7c-1.6-0.6-3.3-1.3-4.8-2l0.7-1.6c1.6,0.7,3.2,1.3,4.7,1.9L169.8,332.7z M580.9,329.4l-0.5-1.7
					c1.5-0.5,3.1-1.1,4.7-1.8l0.7,1.6C584.1,328.3,582.5,328.9,580.9,329.4z M160.3,328.5c-1.5-0.8-3.1-1.6-4.6-2.5l0.9-1.5
					c1.5,0.9,3,1.7,4.5,2.5L160.3,328.5z M590.5,325.2l-0.8-1.5c1.4-0.8,2.9-1.7,4.4-2.6l0.9,1.5C593.5,323.5,592,324.4,590.5,325.2
					z M151.3,323.2c-1.4-1-2.9-2-4.2-3.1l1.1-1.4c1.3,1,2.7,2,4.1,3L151.3,323.2z M599.3,319.6l-1-1.4c1.3-1,2.7-2,4.1-3.1l1.1,1.3
					C602.1,317.5,600.7,318.6,599.3,319.6z M143,316.9c-1.3-1.1-2.6-2.3-3.8-3.6l1.2-1.2c1.2,1.2,2.5,2.4,3.7,3.5L143,316.9z
					 M607.4,313l-1.2-1.3c1.3-1.1,2.5-2.3,3.7-3.5l1.2,1.2C609.9,310.6,608.7,311.8,607.4,313z M135.6,309.5c-1.2-1.3-2.3-2.6-3.4-4
					l1.4-1.1c1.1,1.3,2.2,2.7,3.3,3.9L135.6,309.5z M614.8,305.7l-1.3-1.2c1.2-1.2,2.3-2.5,3.4-3.8l1.3,1.1
					C617.1,303.1,616,304.4,614.8,305.7z M129.1,301.3c-1-1.4-1.9-2.9-2.9-4.4l1.5-0.9c0.9,1.5,1.8,2.9,2.8,4.3L129.1,301.3z
					 M621.6,297.8l-1.4-1.1c1.1-1.3,2.1-2.7,3.1-4.1l1.4,1C623.7,295,622.6,296.4,621.6,297.8z M123.7,292.5
					c-0.8-1.5-1.6-3.1-2.3-4.7l1.6-0.7c0.7,1.5,1.5,3.1,2.3,4.6L123.7,292.5z M627.6,289.3l-1.4-0.9c0.9-1.4,1.9-2.9,2.7-4.3
					l1.5,0.9C629.5,286.4,628.6,287.9,627.6,289.3z M119.2,283c-0.6-1.6-1.3-3.2-1.8-4.9l1.6-0.6c0.6,1.6,1.2,3.2,1.8,4.8L119.2,283
					z M633,280.4l-1.5-0.8c0.8-1.5,1.6-3,2.3-4.6l1.6,0.8C634.6,277.3,633.8,278.9,633,280.4z M115.8,273.2c-0.5-1.6-1-3.3-1.4-5
					l1.7-0.4c0.4,1.7,0.9,3.3,1.4,4.9L115.8,273.2z M637.5,271l-1.6-0.7c0.7-1.6,1.3-3.2,1.9-4.8l1.6,0.6
					C638.9,267.8,638.2,269.4,637.5,271z M113.2,263.2c-0.4-1.7-0.7-3.4-1-5.1l1.7-0.3c0.3,1.7,0.6,3.4,1,5L113.2,263.2z
					 M641.2,261.3l-1.6-0.5c0.5-1.6,1-3.3,1.5-4.9l1.7,0.5C642.3,258,641.8,259.6,641.2,261.3z M111.5,252.9
					c-0.2-1.7-0.4-3.4-0.6-5.2l1.7-0.2c0.2,1.7,0.4,3.4,0.6,5.1L111.5,252.9z M644,251.3l-1.7-0.4c0.4-1.7,0.7-3.4,1-5l1.7,0.3
					C644.7,247.8,644.4,249.6,644,251.3z M110.5,242.6c-0.1-1.7-0.2-3.4-0.3-5.2l1.7-0.1c0.1,1.7,0.2,3.4,0.3,5.1L110.5,242.6z
					 M645.8,241l-1.7-0.2c0.2-1.7,0.4-3.4,0.5-5.1l1.7,0.1C646.2,237.5,646,239.3,645.8,241z M110.1,232.2c0-0.5,0-1.1,0-1.6
					c0-1.2,0-2.4,0-3.6l1.7,0c0,1.2,0,2.4,0,3.6c0,0.5,0,1.1,0,1.6L110.1,232.2z M646.5,230.6l-1.7,0c0-0.6,0-1.2,0-1.7
					c0-1.1,0-2.3-0.1-3.4l1.7-0.1c0,1.1,0.1,2.3,0.1,3.4C646.5,229.4,646.5,230,646.5,230.6z M112,221.9l-1.7-0.1
					c0.1-1.5,0.1-3,0.2-4.5l0-0.7l1.7,0.1l0,0.7C112.1,218.9,112.1,220.4,112,221.9z M644.4,220.3c-0.1-1.7-0.3-3.4-0.6-5.1l1.7-0.2
					c0.2,1.7,0.4,3.5,0.6,5.2L644.4,220.3z M112.7,211.6l-1.7-0.1c0.1-1.7,0.3-3.5,0.5-5.2l1.7,0.2
					C113,208.2,112.8,209.9,112.7,211.6z M643,210.2c-0.3-1.7-0.7-3.3-1.1-5l1.7-0.4c0.4,1.7,0.8,3.4,1.1,5.1L643,210.2z
					 M113.8,201.4l-1.7-0.2c0.2-1.7,0.5-3.4,0.7-5.1l1.7,0.3C114.2,198,114,199.7,113.8,201.4z M640.6,200.2c-0.5-1.6-1-3.3-1.6-4.9
					l1.6-0.6c0.6,1.6,1.1,3.3,1.6,5L640.6,200.2z M115.4,191.2l-1.7-0.3c0.3-1.7,0.7-3.4,1-5.1l1.7,0.4
					C116,187.9,115.7,189.5,115.4,191.2z M637.2,190.6c-0.6-1.6-1.3-3.2-2-4.7l1.6-0.7c0.7,1.6,1.4,3.2,2,4.8L637.2,190.6z
					 M633,181.2c-0.8-1.5-1.6-3-2.4-4.5l1.5-0.8c0.8,1.5,1.7,3.1,2.4,4.6L633,181.2z M117.5,181.2l-1.7-0.4c0.4-1.7,0.9-3.4,1.3-5
					l1.7,0.5C118.4,177.9,117.9,179.5,117.5,181.2z M628,172.3c-0.9-1.4-1.8-2.9-2.8-4.3l1.4-1c1,1.4,1.9,2.9,2.8,4.4L628,172.3z
					 M120.3,171.3l-1.6-0.5c0.5-1.7,1.1-3.3,1.7-4.9l1.6,0.6C121.4,168,120.8,169.7,120.3,171.3z M622.3,163.7c-1-1.3-2-2.7-3.1-4.1
					l1.4-1.1c1.1,1.4,2.1,2.8,3.1,4.2L622.3,163.7z M123.7,161.7l-1.6-0.6c0.7-1.6,1.3-3.2,2-4.8l1.6,0.7
					C125.1,158.5,124.4,160.1,123.7,161.7z M616,155.6c-1.1-1.3-2.1-2.6-3.3-3.9l1.3-1.1c1.2,1.4,2.3,2.7,3.3,4L616,155.6z
					 M128,152.3l-1.5-0.8c0.8-1.6,1.6-3.1,2.5-4.6l1.5,0.9C129.6,149.3,128.7,150.8,128,152.3z M609.3,147.8
					c-1.1-1.3-2.3-2.6-3.5-3.8l1.3-1.2c1.2,1.3,2.3,2.6,3.5,3.8L609.3,147.8z M133,143.4l-1.5-0.9c0.9-1.5,1.9-2.9,2.9-4.3l1.4,1
					C134.9,140.6,134,142,133,143.4z M602.3,140.2c-1.2-1.3-2.3-2.5-3.5-3.8l1.3-1.2c1.2,1.3,2.3,2.5,3.5,3.8L602.3,140.2z
					 M139,135.1l-1.3-1.1c1.1-1.4,2.2-2.7,3.4-4l1.3,1.2C141.2,132.5,140,133.8,139,135.1z M595.4,132.5c-1.2-1.4-2.3-2.7-3.4-3.9
					l1.3-1.1c1.1,1.2,2.2,2.5,3.4,3.9L595.4,132.5z M145.8,127.5l-1.2-1.2c1.2-1.2,2.5-2.4,3.8-3.6l1.1,1.3
					C148.3,125.1,147,126.3,145.8,127.5z M438.5,126.3c-0.9,0-1.8,0-2.8,0l0-1.7c1.7,0,3.4,0,5.2,0l0,1.7
					C440.1,126.3,439.3,126.3,438.5,126.3z M446.1,126.3l0-1.7c1.7,0,3.4,0,5.2,0l0,1.7C449.6,126.2,447.8,126.3,446.1,126.3z
					 M430.6,126.3c-1.7,0-3.4,0-5.2,0l0-1.7c1.7,0,3.4,0,5.2,0L430.6,126.3z M456.5,126.2l0-1.7c1.7,0,3.4-0.1,5.2-0.1l0,1.7
					C459.9,126.1,458.2,126.1,456.5,126.2z M420.3,126.1c-1.7,0-3.5-0.1-5.2-0.1l0-1.7c1.7,0,3.4,0.1,5.2,0.1L420.3,126.1z
					 M466.8,125.9l0-1.7c1.7,0,3.5-0.1,5.2-0.1l0.1,1.7C470.3,125.8,468.6,125.9,466.8,125.9z M409.9,125.9c-1.7,0-3.5-0.1-5.2-0.1
					l0.1-1.7c1.7,0.1,3.4,0.1,5.2,0.1L409.9,125.9z M399.6,125.6c-1.7-0.1-3.5-0.1-5.2-0.2l0.1-1.7c1.7,0.1,3.4,0.1,5.2,0.2
					L399.6,125.6z M477.2,125.6l-0.1-1.7c1.7-0.1,3.4-0.1,5.2-0.2l0.1,1.7C480.6,125.5,478.9,125.6,477.2,125.6z M389.3,125.2
					c-1.7-0.1-3.5-0.2-5.2-0.2l0.1-1.7c1.7,0.1,3.4,0.2,5.2,0.2L389.3,125.2z M487.5,125.2l-0.1-1.7c1.7-0.1,3.4-0.2,5.2-0.3
					l0.1,1.7C491,125,489.3,125.1,487.5,125.2z M378.9,124.7c-1.7-0.1-3.5-0.2-5.2-0.3l0.1-1.7c1.7,0.1,3.4,0.2,5.2,0.3L378.9,124.7
					z M497.9,124.7l-0.1-1.7c1.7-0.1,3.4-0.2,5.2-0.3l0.1,1.7C501.3,124.5,499.6,124.6,497.9,124.7z M588.7,124.6
					c-1.1-1.4-2.2-2.8-3.2-4.1l1.4-1c1,1.3,2.1,2.7,3.2,4L588.7,124.6z M368.6,124.1c-1.7-0.1-3.5-0.2-5.2-0.4l0.1-1.7
					c1.7,0.1,3.4,0.2,5.2,0.4L368.6,124.1z M508.2,124l-0.1-1.7c1.7-0.1,3.4-0.2,5.2-0.4l0.1,1.7C511.6,123.8,509.9,123.9,508.2,124
					z M358.3,123.3c-1.7-0.1-3.5-0.3-5.2-0.4l0.1-1.7c1.7,0.1,3.4,0.3,5.1,0.4L358.3,123.3z M518.5,123.2l-0.1-1.7
					c1.7-0.1,3.4-0.3,5.1-0.4l0.2,1.7C522,123,520.2,123.1,518.5,123.2z M348,122.4c-1.7-0.2-3.5-0.3-5.2-0.5l0.2-1.7
					c1.7,0.2,3.4,0.3,5.1,0.5L348,122.4z M528.8,122.3l-0.2-1.7c1.7-0.2,3.4-0.3,5.1-0.5l0.2,1.7C532.3,122,530.6,122.2,528.8,122.3
					z M337.7,121.4c-1.7-0.2-3.5-0.4-5.1-0.6l0.2-1.7c1.7,0.2,3.4,0.4,5.1,0.6L337.7,121.4z M539.1,121.2l-0.2-1.7
					c1.7-0.2,3.4-0.4,5.1-0.6l0.2,1.7C542.6,120.8,540.9,121.1,539.1,121.2z M153.5,120.8l-1.1-1.4c1.4-1.1,2.8-2.1,4.2-3.1l1,1.4
					C156.2,118.7,154.8,119.7,153.5,120.8z M327.4,120.2c-1.7-0.2-3.5-0.5-5.1-0.7l0.2-1.7c1.7,0.2,3.4,0.5,5.1,0.7L327.4,120.2z
					 M549.4,120l-0.2-1.7c1.7-0.2,3.4-0.5,5.1-0.7l0.2,1.7C552.8,119.5,551.1,119.8,549.4,120z M317.1,118.7
					c-1.8-0.3-3.5-0.6-5.1-0.9l0.3-1.7c1.6,0.3,3.3,0.6,5.1,0.9L317.1,118.7z M559.7,118.5l-0.3-1.7c1.7-0.3,3.4-0.5,5.1-0.8
					l0.3,1.7C563.1,118,561.4,118.3,559.7,118.5z M306.9,116.9c-1.8-0.4-3.5-0.7-5.1-1.1l0.4-1.7c1.6,0.4,3.3,0.7,5,1.1L306.9,116.9
					z M569.9,116.8l-0.3-1.7c1.7-0.3,3.4-0.6,5.1-1l0.3,1.7C573.3,116.2,571.6,116.5,569.9,116.8z M582.4,116.3
					c-0.4-0.6-0.8-1.2-1.2-1.8c-0.4,0.1-0.8,0.2-1.1,0.2l-0.4-1.7c0.2,0,0.3-0.1,0.5-0.1c-0.2-0.3-0.4-0.7-0.7-1l1.5-0.9
					c0.3,0.5,0.7,1,1,1.6c0.9-0.2,1.9-0.4,2.8-0.6l0.4,1.7c-0.7,0.2-1.4,0.3-2.1,0.5c0.3,0.4,0.5,0.8,0.8,1.2L582.4,116.3z
					 M161.9,115l-0.9-1.5c1.5-0.9,3-1.7,4.5-2.6l0.8,1.5C164.9,113.3,163.4,114.1,161.9,115z M296.8,114.5c-0.5-0.1-1-0.3-1.5-0.4
					c-0.9-0.3-2.1-0.6-3.4-1l-0.1,0l0.5-1.7l0.1,0c1.4,0.4,2.5,0.8,3.4,1c0.5,0.1,1,0.3,1.5,0.4L296.8,114.5z M590.1,112.4l-0.4-1.7
					c1.7-0.4,3.4-0.9,5-1.4l0.5,1.7C593.5,111.5,591.9,112,590.1,112.4z M286.9,111.5c-1.7-0.5-3.4-1-5-1.4l0.5-1.7
					c1.6,0.5,3.2,0.9,5,1.4L286.9,111.5z M171,110.2l-0.7-1.6c1.6-0.7,3.2-1.4,4.8-2l0.6,1.6C174.1,108.9,172.5,109.5,171,110.2z
					 M600.1,109.5l-0.5-1.6c1.7-0.5,3.3-1.1,4.9-1.7l0.6,1.6C603.5,108.4,601.8,109,600.1,109.5z M276.9,108.7
					c-1.7-0.4-3.4-0.9-5-1.3l0.4-1.7c1.7,0.4,3.3,0.8,5,1.3L276.9,108.7z M576.8,107.5c-0.8-1.4-1.5-3-2.2-4.8l1.6-0.6
					c0.7,1.8,1.4,3.3,2.1,4.6L576.8,107.5z M180.5,106.5l-0.5-1.6c1.6-0.5,3.3-1.1,5-1.5l0.5,1.7C183.8,105.5,182.1,106,180.5,106.5
					z M266.9,106.2c-1.7-0.4-3.4-0.7-5-1.1l0.3-1.7c1.7,0.3,3.4,0.7,5.1,1.1L266.9,106.2z M609.9,105.9l-0.7-1.6
					c1.6-0.7,3.2-1.4,4.7-2.1l0.8,1.5C613.2,104.5,611.6,105.2,609.9,105.9z M256.8,104.2c-1.7-0.3-3.4-0.6-5.1-0.9l0.3-1.7
					c1.7,0.3,3.4,0.6,5.1,0.9L256.8,104.2z M190.4,103.8l-0.4-1.7c1.7-0.4,3.4-0.7,5.1-1l0.3,1.7C193.7,103,192.1,103.4,190.4,103.8
					z M246.7,102.5c-1.7-0.2-3.4-0.5-5.1-0.7l0.2-1.7c1.7,0.2,3.4,0.4,5.1,0.7L246.7,102.5z M200.5,101.9l-0.2-1.7
					c1.7-0.2,3.4-0.4,5.2-0.6l0.2,1.7C203.9,101.5,202.2,101.7,200.5,101.9z M236.4,101.3c-1.7-0.2-3.4-0.3-5.1-0.4l0.1-1.7
					c1.7,0.1,3.4,0.2,5.2,0.4L236.4,101.3z M619.2,101.2l-0.9-1.5c1.5-0.9,2.9-1.9,4.2-2.9l1.1,1.4
					C622.3,99.3,620.8,100.3,619.2,101.2z M210.7,100.9l-0.1-1.7c1.7-0.1,3.5-0.2,5.2-0.2l0,1.7
					C214.2,100.7,212.4,100.8,210.7,100.9z M226.2,100.7c-1.7-0.1-3.4-0.1-5.1-0.1l0-1.7c1.7,0,3.5,0,5.2,0.1L226.2,100.7z
					 M572.9,97.7c-0.5-1.6-0.9-3.3-1.3-5.1l1.7-0.4c0.4,1.7,0.8,3.4,1.2,5L572.9,97.7z M627.5,94.7l-1.3-1.2c1.1-1.2,2-2.5,2.6-3.8
					l0.1-0.3l1.5,0.8l-0.1,0.3C629.6,92,628.7,93.4,627.5,94.7z M570.7,87.5c-0.3-1.7-0.5-3.5-0.6-5.2l1.7-0.1
					c0.1,1.7,0.3,3.4,0.6,5.1L570.7,87.5z M632.7,85.5l-1.6-0.6c0.6-1.6,1.2-3.2,1.6-4.8l1.7,0.5C633.9,82.2,633.3,83.9,632.7,85.5z
					 M569.9,77.1c0-0.5,0-0.9,0-1.4c0-1.3,0-2.6,0.1-3.9l1.7,0.1c-0.1,1.2-0.1,2.5-0.1,3.8c0,0.4,0,0.9,0,1.3L569.9,77.1z
					 M635.6,75.4l-1.7-0.3c0.3-1.7,0.5-3.4,0.6-5l1.7,0.1C636.1,71.9,635.9,73.7,635.6,75.4z M572.2,66.9l-1.7-0.2
					c0.2-1.8,0.6-3.5,1-5.2l1.7,0.4C572.7,63.5,572.4,65.2,572.2,66.9z M634.5,65c-0.1-1.7-0.3-3.4-0.6-5l1.7-0.3
					c0.3,1.7,0.5,3.5,0.6,5.2L634.5,65z M574.5,57.1l-1.6-0.6c0.6-1.7,1.3-3.3,2.1-4.8l1.5,0.8C575.8,53.9,575.1,55.4,574.5,57.1z
					 M632.7,55.1c-0.5-1.6-1.2-3.2-2-4.6l1.5-0.8c0.8,1.5,1.5,3.2,2.1,4.9L632.7,55.1z M579.2,48.2l-1.4-1c1.1-1.4,2.3-2.8,3.6-3.9
					l1.2,1.3C581.4,45.6,580.3,46.9,579.2,48.2z M628,46.3c-1-1.3-2.2-2.5-3.5-3.6l1.1-1.3c1.3,1.1,2.6,2.4,3.7,3.8L628,46.3z
					 M586.6,41.5l-0.9-1.5c1.5-0.9,3.1-1.7,4.7-2.4l0.6,1.6C589.5,39.9,588,40.6,586.6,41.5z M620.4,39.9c-1.4-0.8-3-1.4-4.6-1.9
					l0.5-1.7c1.7,0.5,3.4,1.2,4.9,2L620.4,39.9z M595.8,37.7l-0.4-1.7c1.7-0.4,3.4-0.7,5.2-0.8l0.2,1.7
					C599.1,37.1,597.4,37.4,595.8,37.7z M611,37c-0.1,0-0.3,0-0.4,0c-1.6-0.1-3.2-0.2-4.7-0.2l0-1.7c1.5,0,3.2,0.1,4.8,0.2
					c0.1,0,0.3,0,0.4,0L611,37z"/>
			</g>
			<g>
				<path class="st3" d="M572.8,330.8V329c0.9,0,1.7-0.1,2.5-0.2l0.2,1.7C574.6,330.7,573.7,330.8,572.8,330.8z"/>
			</g>
		</g>
		<g>
			<path class="st4" d="M113.2,158.9l-5.1-6.8c-1.3-1.8-1.9-4-1.5-6.2l2.8-16.4c0.2-1.4-0.6-2.6-2-2.9l0,0c-1-0.2-2.1,0.2-2.7,1.1
				l-3.2,5l-14.1-5.3l-2.4,13.1l1.3,5.4c1.2,5.2,5.1,9.3,10.1,11l1.9,0.6l4.8,11.1L113.2,158.9z"/>
			<g id="XMLID_326_">
				<g id="XMLID_331_">
					<path id="XMLID_340_" class="st5" d="M293.2,66.7c-1.7-7.2-9.4-11.5-16.8-8.9c-5.8,2-9.4,7.9-8.5,13.8c0.5,3.5,2.5,6.4,5.2,8.2
						c2.7,1.9,4.7,4.6,5.4,7.8l0,0c0.5,2.3,2.9,3.7,5.3,3.2l3.4-0.8c2.4-0.5,3.9-2.9,3.3-5.2l0-0.1c-0.7-3.1-0.1-6.4,1.5-9.3
						C293.4,72.9,293.9,69.8,293.2,66.7z"/>
					<path id="XMLID_338_" class="st6" d="M290.4,84.7c-0.7-3.1-0.1-6.4,1.5-9.3c1.5-2.6,2-5.7,1.3-8.8c-1.7-7.2-9.4-11.5-16.8-8.9
						c-0.5,0.2-0.9,0.4-1.3,0.6c5.5,0.3,10.4,4.1,11.7,9.6c0.7,3.1,0.2,6.2-1.3,8.8c-1.6,2.9-2.2,6.1-1.5,9.3l0,0.1
						c0.4,1.9-0.5,3.7-2.1,4.7c0.6,0.1,1.2,0.1,1.9,0l3.4-0.8c2.4-0.5,3.9-2.9,3.3-5.2L290.4,84.7z"/>
					<path id="XMLID_336_" class="st7" d="M290.4,84.7c-0.2-1-0.3-2.1-0.3-3.1c0,0-13.2,3.4-12.5,3.5c0,0,0.5,0.9,0.5,0.9
						c0.9,1.3,0,0,0.4,1.5c0.5,2.3,2.9,3.7,5.3,3.2l3.4-0.8c2.4-0.5,3.9-2.9,3.3-5.2L290.4,84.7z"/>
					<linearGradient id="XMLID_2_" gradientUnits="userSpaceOnUse" x1="283.8458" y1="86.2078" x2="290.5639" y2="86.2078">
						<stop  offset="0" style="stop-color:#000000"/>
						<stop  offset="0.52" style="stop-color:#323232"/>
						<stop  offset="1" style="stop-color:#646464"/>
					</linearGradient>
					<path id="XMLID_334_" class="st8" d="M290.5,84.9l0-0.1c-0.2-1-0.3-2.1-0.3-3.1c0,0-3.1,0.8-6.2,1.6c1.9,2,1.7,5.5-0.2,7.5
						l3.3-0.7C289.5,89.5,291,87.2,290.5,84.9z"/>
					<path id="XMLID_333_" class="st9" d="M275.3,62.8c-0.5-0.4-1.1-0.2-1.6,0.2c-0.7,0.7-1.3,1.6-1.6,2.6c-0.2,0.6,0,1.2,0.6,1.4
						c0.5,0.2,1.3,0,1.5-0.6c0.3-0.8,0.7-1.5,1.3-2.1C275.9,63.9,275.7,63.2,275.3,62.8z"/>
					<path id="XMLID_332_" class="st9" d="M276.2,75.5c-0.5-0.7-1-1.5-1.5-2.2c-0.8-1.2-2.5,0.2-1.8,1.3c0.5,0.7,1,1.5,1.5,2.2
						C275.2,77.9,277,76.6,276.2,75.5z"/>
				</g>
				<path id="XMLID_330_" class="st6" d="M308.5,59.6c-0.4-1.1-1.6-1.3-2.6-1.1c-2.8,0.8-5.7,1.5-8.5,2.3c-1.1,0.3-1.5,1.7-1.1,2.6
					c0.4,1.1,1.6,1.3,2.6,1.1c2.8-0.8,5.7-1.5,8.5-2.3C308.4,61.9,308.8,60.5,308.5,59.6z"/>
				<path id="XMLID_329_" class="st6" d="M260.4,69.7c-1.7,0-3.4,0-5.1-0.1c-1.1,0-2.1,0.5-2.3,1.7c-0.1,1,0.6,2.2,1.7,2.2
					c1.7,0,3.4,0,5.1,0.1c1.1,0,2.1-0.5,2.3-1.7C262.2,71,261.5,69.7,260.4,69.7z"/>
				<path id="XMLID_328_" class="st6" d="M269.2,51.7c-1.5-1-3.1-2.1-4.6-3.1c-2.1-1.4-4.6,1.7-2.5,3.1c1.5,1,3.1,2.1,4.6,3.1
					C268.8,56.2,271.4,53.1,269.2,51.7z"/>
				<path id="XMLID_327_" class="st6" d="M289,44.6c0-1.1-1.3-1.8-2.3-1.7c-1.2,0.2-1.8,1.2-1.8,2.2c0,1.2-0.3,2.3-0.9,3.3
					c-0.5,1,0.1,2.2,1,2.6c1,0.4,2.2-0.1,2.7-1C288.7,48.3,289,46.5,289,44.6z"/>
			</g>
			<g>
				<g>
					<linearGradient id="SVGID_2_" gradientUnits="userSpaceOnUse" x1="159.4208" y1="193.1295" x2="251.3544" y2="193.1295">
						<stop  offset="0" style="stop-color:#4F6DF5"/>
						<stop  offset="0.23" style="stop-color:#4F6DF5"/>
						<stop  offset="0.52" style="stop-color:#4F73F5"/>
						<stop  offset="0.73" style="stop-color:#4F78F5"/>
						<stop  offset="1" style="stop-color:#4F82F5"/>
					</linearGradient>
					<polygon class="st10" points="159.4,155 215.5,137.4 251.4,248 191,248.9 					"/>
					<g id="XMLID_534_">
						<g id="XMLID_535_">
							<g id="XMLID_537_">
								<path id="XMLID_574_" class="st11" d="M150.7,82c4.7-16,44.5-29.6,61.4,14.2c12.3,31.9-23.3,47.5-43.4,45.3
									C134.5,137.9,146,98.1,150.7,82z"/>
								<g id="XMLID_570_">
									<path id="XMLID_573_" class="st4" d="M150.4,114.1c0,0-7.3-6.2-11.6-0.2c-4.3,6,6.4,19.4,15.8,13.8L150.4,114.1z"/>
									<path id="XMLID_572_" class="st12" d="M152.1,119.2l2.2,7c-8.5,3.4-16-7.8-12.3-10.3C144.9,113.8,149.8,117.2,152.1,119.2z
										"/>
									<path id="XMLID_571_" class="st13" d="M141,118.7c0,0,0-0.1,0-0.2c0-0.1,0-0.3,0-0.5c0.1-0.4,0.2-0.9,0.5-1.4
										c0.1-0.1,0.2-0.2,0.3-0.3c0.1,0,0.1-0.1,0.2-0.1l0,0l0,0c0,0,0,0,0,0l0,0l0,0l0,0l0.1-0.1c0.1-0.1,0.2-0.1,0.2-0.1
										c0.1,0,0.1-0.1,0.2-0.1c0.1,0,0.2,0,0.3-0.1c0.1,0,0.2,0,0.3,0c0.7-0.1,1.6,0,2.4,0.3c0.4,0.1,0.8,0.3,1.2,0.4
										c0.4,0.2,0.8,0.3,1.2,0.5c0.7,0.4,1.4,0.7,2,1.1c1.2,0.7,2,1.1,2,1.1s-0.1-0.2-0.4-0.5c-0.3-0.3-0.7-0.7-1.2-1.2
										c-0.3-0.2-0.5-0.5-0.9-0.7c-0.3-0.2-0.7-0.5-1-0.7c-0.7-0.5-1.6-0.9-2.5-1.2c-0.5-0.1-1-0.2-1.5-0.3c-0.5,0-1,0-1.5,0.1
										c-0.1,0-0.2,0.1-0.4,0.1c-0.1,0-0.2,0.1-0.3,0.1c-0.1,0-0.2,0.1-0.3,0.2c-0.1,0.1-0.2,0.1-0.3,0.2l-0.1,0.1l-0.1,0.1
										l-0.1,0.1c-0.1,0.1-0.2,0.2-0.2,0.2c-0.1,0.2-0.3,0.3-0.3,0.5c-0.2,0.4-0.2,0.7-0.2,1c0,0.3,0,0.5,0.1,0.7
										c0,0.2,0.1,0.4,0.1,0.5C141,118.6,141,118.7,141,118.7z"/>
								</g>
								<g id="XMLID_566_">
									<path id="XMLID_569_" class="st4" d="M203.8,102.4c0,0,4-8.7,10.4-5.1c6.4,3.6,2.3,20.3-8.6,19.1L203.8,102.4z"/>
									<path id="XMLID_568_" class="st12" d="M204.5,107.7l0.9,7.2c9.1-0.4,11.3-13.8,6.9-14.5C208.7,99.8,205.7,105,204.5,107.7z
										"/>
								</g>
								<path id="XMLID_565_" class="st4" d="M175.8,132.6l14.4-3.2c0,0,5.5,22.5,5.6,22.5c0,0-0.1,4.7-6.5,6.2
									c-6.4,1.5-9-2.9-9-2.9C180.4,155.2,175.8,132.6,175.8,132.6z"/>
								<path id="XMLID_564_" class="st12" d="M177.6,140.9l14.4-3.2c0,0,2.5,8.6,2.5,8.6c0,0-0.1,4.7-6.5,6.2c-6.4,1.5-9-2.9-9-2.9
									C179.1,149.6,177.6,140.9,177.6,140.9z"/>
								<path id="XMLID_563_" class="st13" d="M176.7,136.8l14.4-3.2c0,0,0.8,2.8,1.5,5.3c0.1,0.4-3.9,1.9-4.3,2.1
									c-3.4,1.3-7,1.6-10.6,1.5C177.2,139.9,176.7,136.8,176.7,136.8z"/>
								<path id="XMLID_562_" class="st11" d="M141.8,109.7c3.9,18,22.8,29.2,42.1,25c19.3-4.2,31.7-22.2,27.8-40.3
									c-3.9-18-22.8-29.2-42.1-25C150.3,73.7,137.9,91.7,141.8,109.7z"/>
								<path id="XMLID_561_" class="st4" d="M145.5,108.5c-1.8-10.1,0.4-20.5,9.5-26.6c4.6-3.1,10-4.8,15.4-5.9
									c5.3-1.1,11.1-2,16.5-1.1c9.7,1.5,9.4,6.4,12.4,15.4c0.3,0.9,7.3,4,7.5,4.8c0.5,2.1,1.1,4.1,1.5,6.1
									c0.8,4.7,1.1,9.5,0.6,14.3c-0.7,5.8-2.7,11.4-6.3,16.1c-2.1,2.6-4.7,4.9-7.5,6.6c-4.7,2.9-9.5,4.6-15.1,4.8
									c-3.8,0.1-7.6-0.3-11.2-1.4c-6-1.9-11-5.8-14.6-10.7c-3.1-4.2-5.3-8.9-6.8-13.9c-0.8-2.7-1.5-5.5-1.8-8.3
									C145.5,108.6,145.5,108.6,145.5,108.5z"/>
								<g id="XMLID_538_">
									<path id="XMLID_539_" class="st13" d="M145,108.9c0,0-1.3-3.8-2.4-8.8C143.7,105.2,145,108.9,145,108.9z"/>
								</g>
							</g>
							<path id="XMLID_536_" class="st11" d="M148.8,122.5c0,0-4.6,0-9.9-8.6c-3.6-5.9-6-20.1-0.1-29c3.5-5.3,5.3-3.9,5.3-3.9
								s0.3-10.3,8.5-16.1c14.5-10.3,35.9-11.9,51.3-5.2c15.7,6.9,2.9,35.4-30.3,35c-13.4-0.2-21.8,0.2-21.8,0.2s1.3,3.9,0.6,10.3
								c-0.7,6.4-4.7,14.3-4.7,14.3L148.8,122.5z"/>
						</g>
					</g>
				</g>
				<linearGradient id="SVGID_3_" gradientUnits="userSpaceOnUse" x1="119.318" y1="183.0908" x2="171.9909" y2="183.0908">
					<stop  offset="0" style="stop-color:#4F6DF5"/>
					<stop  offset="0.23" style="stop-color:#4F6DF5"/>
					<stop  offset="0.52" style="stop-color:#4F73F5"/>
					<stop  offset="0.73" style="stop-color:#4F82F5"/>
					<stop  offset="1" style="stop-color:#4FA0F5"/>
				</linearGradient>
				<path class="st14" d="M172,169.5l-29.4,37.8l-1.3,1.6c-3.2,1.8-6.7,2.5-10.1,2.2c-4.5-0.4-8.8-2.5-11.9-6.2l13-16.2l27.1-33.8
					L172,169.5z"/>
				<linearGradient id="SVGID_4_" gradientUnits="userSpaceOnUse" x1="96.8621" y1="181.3131" x2="144.5088" y2="181.3131">
					<stop  offset="0" style="stop-color:#4F6DF5"/>
					<stop  offset="0.23" style="stop-color:#4F6DF5"/>
					<stop  offset="0.52" style="stop-color:#4F73F5"/>
					<stop  offset="0.73" style="stop-color:#4F82F5"/>
					<stop  offset="1" style="stop-color:#4FA0F5"/>
				</linearGradient>
				<path class="st15" d="M144.5,204.8c-0.5,0.4-2.7,3.8-3.2,4.2c-3.2,1.8-6.7,2.5-10.1,2.2c-4.5-0.4-8.8-2.5-11.9-6.2
					c-0.7-0.9-1.4-1.8-1.9-2.9l-20.5-38.5l14.9-12.2l20.6,37.3l10.2,18.5L144.5,204.8z"/>
				<linearGradient id="SVGID_5_" gradientUnits="userSpaceOnUse" x1="214.1561" y1="148.0254" x2="295.384" y2="148.0254">
					<stop  offset="0" style="stop-color:#4F6DF5"/>
					<stop  offset="0.23" style="stop-color:#4F6DF5"/>
					<stop  offset="0.52" style="stop-color:#4F73F5"/>
					<stop  offset="0.73" style="stop-color:#4F82F5"/>
					<stop  offset="1" style="stop-color:#4FA0F5"/>
				</linearGradient>
				<path class="st16" d="M295.4,148.8c0,5.6-4.7,10.3-10.7,9.9l-4.3-0.3l-59.6-4.6l-6.7-0.6l1.4-15.8l60,5.2l18.8,1.6l0.5,1.6
					C295.2,146.8,295.4,147.8,295.4,148.8z"/>
			</g>
			<path class="st12" d="M95.4,143.7l-8.4,0c-1.4,0-2.5-1.1-2.5-2.5l0,0c0-1.4,1.1-2.5,2.5-2.5l8.4,0c1.4,0,2.5,1.1,2.5,2.5l0,0
				C97.9,142.6,96.8,143.8,95.4,143.7z"/>
			<path class="st12" d="M95.1,138l-8.4,0c-1.4,0-2.5-1.1-2.5-2.5l0,0c0-1.4,1.1-2.5,2.5-2.5l8.4,0c1.4,0,2.5,1.1,2.5,2.5l0,0
				C97.6,136.9,96.4,138.1,95.1,138z"/>
			<path class="st12" d="M95.2,131.7l-8.4,0c-1.4,0-2.5-1.1-2.5-2.5l0,0c0-1.4,1.1-2.5,2.5-2.5l8.4,0c1.4,0,2.5,1.1,2.5,2.5l0,0
				C97.8,130.6,96.6,131.7,95.2,131.7z"/>
			<linearGradient id="SVGID_6_" gradientUnits="userSpaceOnUse" x1="268.7714" y1="137.0513" x2="295.384" y2="137.0513">
				<stop  offset="0" style="stop-color:#4F6DF5"/>
				<stop  offset="0.23" style="stop-color:#4F6DF5"/>
				<stop  offset="0.52" style="stop-color:#4F73F5"/>
				<stop  offset="0.73" style="stop-color:#4F82F5"/>
				<stop  offset="1" style="stop-color:#4FA0F5"/>
			</linearGradient>
			<path class="st17" d="M295.4,148.8c0,5.6-4.7,10.3-10.7,9.9l-4.3-0.3l-4.9-15.8l-6.8-22l16.8-5.2l8.9,28.8l0.5,1.6
				C295.2,146.8,295.4,147.8,295.4,148.8z"/>
			<path class="st4" d="M271.9,119.5c0,0-12-1-12-3.5c0-2.4,4.7-6.6,4.7-6.6s-9.7-19.3-6.4-20.4c3.3-1,4.1,6.2,9.1,9.4
				c5,3.2,10.6-3.3,14.8,1.5c4.2,4.8,1.2,16.2,1.2,16.2L271.9,119.5z"/>
		</g>
		<g>
			<g>
				<path class="st18" d="M558,398.6H195.8c-4.8,0-8.7-3.9-8.7-8.7V167.4c0-4.8,3.9-8.7,8.7-8.7H558c4.8,0,8.7,3.9,8.7,8.7v222.5
					C566.6,394.7,562.8,398.6,558,398.6z"/>
				<path class="st19" d="M190.3,387.6V169.8c0-4.3,3.5-7.8,7.8-7.8h357.5c4.3,0,7.8,3.5,7.8,7.8v217.8c0,4.3-3.5,7.8-7.8,7.8H198.1
					C193.8,395.4,190.3,391.9,190.3,387.6z"/>
				<rect x="201.5" y="175.9" class="st20" width="350.6" height="204.5"/>
			</g>
			<path class="st7" d="M591.3,436.4l-38.4-38l-176.5,0.1l-176.6-0.1l-38.5,38c-3.9,3.9-6.1,9.1-6.1,14.6v4.2c0,4.4,3.5,7.9,7.9,7.9
				h426.4c4.4,0,7.9-3.5,7.9-7.9V451C597.4,445.6,595.2,440.3,591.3,436.4z"/>
			<polygon class="st21" points="533.5,403.5 219.9,403.5 195.7,425 557.5,425 			"/>
		</g>
		<path class="st9" d="M284.6,262.2c0.3,0.4,3.6,3.6,4.1,4.3c0.5,0.6,0.6,1.2,0.2,1.9c-0.3,0.7-1,1.1-1.7,1c-0.5,0-1-0.3-1.4-0.7
			c-0.8-0.9-2.9-3.1-3.7-4c-0.1-0.1-0.1-0.1-0.2-0.2c-0.1,0.1-0.2,0.3-0.2,0.4c-0.6,1.2-1.1,2.4-1.7,3.5c-0.2,0.5-0.6,0.6-1.1,0.4
			c-0.4-0.2-0.6-0.5-0.8-0.9c-0.5-1.7-1-3.4-1.4-5.1c-0.7-2.6-1.5-5.3-2.2-7.9c-0.1-0.4-0.2-0.7,0-1.1c0.2-0.6,0.8-0.9,1.5-0.6
			c0.5,0.2,1,0.4,1.5,0.7c3.7,1.7,7.4,3.5,11.1,5.2c0.4,0.2,0.7,0.5,0.8,0.9c0.1,0.5-0.1,0.9-0.6,1c-1.2,0.4-2.5,0.7-3.7,1.1
			C284.9,262.1,284.8,262.2,284.6,262.2z"/>
		<g>
			<g>
				<path class="st22" d="M446,174.3c0-9.9-7.5-18.1-17.1-19.3l14.5,29C445.1,181.1,446,177.8,446,174.3z"/>
				<path class="st22" d="M407.1,174.3c0,10.7,8.7,19.4,19.4,19.4c1.7,0,3.3-0.2,4.9-0.6l-18.6-32.6
					C409.3,164.1,407.1,168.9,407.1,174.3z"/>
				<path class="st6" d="M443.4,184l-14.5-29c-0.8-0.1-1.6-0.1-2.3-0.1c-5.4,0-10.2,2.2-13.7,5.7l18.6,32.6
					C436.6,191.8,440.9,188.4,443.4,184z"/>
				<path class="st6" d="M428.9,155l-14.2-28.3l-15.8,9.4l13.9,24.4c3.5-3.5,8.4-5.7,13.7-5.7C427.4,154.9,428.2,154.9,428.9,155z"
					/>
				<path class="st9" d="M572.9,255.3c-3.7-21.2-11.2-40.8-21.8-58c-4.9-8-10.4-15.4-16.6-22.3c-25.2-28.2-60.4-46.7-101-50.3
					c-23.4-2-47.9,3.6-65.4,19.9c-10.9,10.2-15.7,20.2-16.9,30.4c-2.8,23.3,13.1,47.2,16.3,74.5c2.2,18.8-1.9,42.1-19.4,52.5
					c-16.7,10-39.6,1.8-54.8,15.1c-20.3,17.8-18.8,40.3-7.8,63.4h264.4c0.4,0,0.8-0.3,1.2-1C573.1,342.5,580.3,297.3,572.9,255.3z
					 M426.6,193.7c-10.7,0-19.4-8.7-19.4-19.4c0-5.4,2.2-10.2,5.7-13.8l-13.9-24.4l15.8-9.4l14.2,28.3c9.6,1.2,17.1,9.3,17.1,19.3
					c0,3.5-0.9,6.8-2.6,9.7c-2.6,4.5-6.9,7.8-12,9.1C429.9,193.5,428.3,193.7,426.6,193.7z"/>
			</g>
			<g>
				<polygon class="st23" points="369.4,75.2 377.4,70.1 414.1,126.7 398.3,136.1 				"/>
				
					<rect x="391.5" y="69.8" transform="matrix(0.8536 -0.5209 0.5209 0.8536 5.6811 218.8255)" class="st24" width="1.4" height="59.1"/>
				<path class="st25" d="M395.3,70.4c7.6,10.9,5.8,25.2-3.9,32c-9.8,6.8-23.8,3.5-31.4-7.3c-7.6-10.9-7.7-52.8-7.7-52.8
					S387.7,59.5,395.3,70.4z"/>
			</g>
			<g>
				<g>
					<path class="st23" d="M399.5,365c8.9-4.9,14.3-21.4,4.3-27.6c-8.9-5.5-18.1,1.7-25.8,1.3c-7.9-0.4-12.4-14.6-20.1-6.5
						c-10,10.5-0.8,35.9,10.2,41.1c9.6,4.5,31.9-2.6,36.3-12"/>
					<path class="st24" d="M397.4,350.2c0.8,3.8,1.9,0.9,2.5-1.1c1-3.4-0.2-5.7-3.4-7.5c-1.6-0.9-5.5-0.9-3.9,2.2
						c0.4,0.8,2.6,1.3,3.4,2.1C397.3,347.4,397,348.5,397.4,350.2z"/>
				</g>
				<g>
					<path class="st6" d="M513.4,221c-6-8.1-23.1-11.4-27.9-0.7c-4.3,9.6,4,17.8,4.6,25.5c0.6,7.9-12.9,14.2-3.8,20.8
						c11.7,8.5,35.7-3.9,39.4-15.5c3.2-10.2-6.8-31.2-16.6-34.4"/>
					<path class="st24" d="M517.6,251c-0.5,1.5-3.5,8.1-4.1,4c-0.2-1.7,1.4-2.7,1.9-4.2c0.5-1.9-0.2-2.6-0.9-4.2
						c-0.5-1.3-2.3-5.4,0.6-5.2C518.3,241.6,518.3,249,517.6,251z"/>
				</g>
				<g>
					<path class="st25" d="M495.6,327.2c3.9-9.3-2.2-25.6-13.9-24.2c-10.4,1.3-13.1,12.6-19.4,17.2c-6.4,4.6-18.8-3.6-19.8,7.5
						c-1.2,14.4,21.9,28.5,33.7,25.6c10.3-2.5,23.2-22,20.8-32"/>
					<path class="st24" d="M487.1,329.6c-1.6-1.8,2.2-6.4,2.3-8.9c0-1.7-2.4-11.3,1.7-5.2C494,320,492.2,327.6,487.1,329.6z"/>
				</g>
			</g>
		</g>
		<g>
			<g>
				<g>
					<path class="st9" d="M185.2,279.9c0-6-3-11.3-7.7-14.4c0.6-1.8,0.9-3.7,0.9-5.7c0-9.7-7.9-17.6-17.6-17.6
						c-1.9,0-3.7,0.3-5.4,0.8c-2.8-8.6-10.9-14.8-20.5-14.8c-7.4,0-13.9,3.7-17.8,9.4c-1.7-0.5-3.5-0.8-5.4-0.8
						c-9,0-16.5,6.6-17.9,15.3c-10.3,1.6-18.2,10.5-18.2,21.3c0,9.3,5.9,17.3,14.2,20.3c3,6.6,9.7,11.2,17.4,11.2
						c4.5,0,8.6-1.5,11.9-4.1c3.1,2,6.8,3.1,10.8,3.1c3.8,0,7.4-1.1,10.5-2.9c3.3,3,7.8,4.9,12.6,4.9c6.6,0,12.4-3.4,15.8-8.6
						C178,296.7,185.2,289.1,185.2,279.9z"/>
				</g>
			</g>
		</g>
		<g>
			<g>
				<g>
					<path class="st9" d="M615.7,123c0-5-2.5-9.4-6.4-12c0.5-1.5,0.8-3.1,0.8-4.7c0-8.1-6.6-14.7-14.7-14.7c-1.6,0-3.1,0.2-4.5,0.7
						c-2.4-7.2-9.1-12.4-17.1-12.4c-6.2,0-11.6,3.1-14.8,7.8c-1.4-0.4-2.9-0.7-4.5-0.7c-7.5,0-13.8,5.5-14.9,12.8
						c-8.6,1.4-15.1,8.8-15.1,17.8c0,7.8,4.9,14.4,11.8,16.9c2.5,5.5,8.1,9.4,14.6,9.4c3.7,0,7.2-1.3,9.9-3.4c2.6,1.6,5.7,2.6,9,2.6
						c3.2,0,6.2-0.9,8.7-2.4c2.8,2.5,6.5,4,10.5,4c5.5,0,10.3-2.8,13.1-7.1C609.7,137,615.7,130.7,615.7,123z"/>
				</g>
			</g>
		</g>
		<g>
			<g>
				<g>
					<g>
						<g>
							<path class="st26" d="M475.9,77.7c-0.4,0-0.7-0.3-0.7-0.7v-6.1c0-0.4,0.3-0.7,0.7-0.7c0.4,0,0.7,0.3,0.7,0.7v6.1
								C476.6,77.4,476.3,77.7,475.9,77.7z"/>
						</g>
					</g>
				</g>
				<g>
					<g>
						<g>
							<path class="st26" d="M470.6,79.5c-0.2,0-0.3-0.1-0.5-0.2l-4.3-4.3c-0.3-0.3-0.3-0.7,0-0.9c0.3-0.3,0.7-0.3,0.9,0l4.3,4.3
								c0.3,0.3,0.3,0.7,0,0.9C470.9,79.5,470.7,79.5,470.6,79.5z"/>
						</g>
					</g>
				</g>
				<g>
					<g>
						<g>
							<path class="st26" d="M468,84.6h-6.1c-0.4,0-0.7-0.3-0.7-0.7c0-0.4,0.3-0.7,0.7-0.7h6.1c0.4,0,0.7,0.3,0.7,0.7
								C468.7,84.3,468.4,84.6,468,84.6z"/>
						</g>
					</g>
				</g>
				<g>
					<g>
						<g>
							<path class="st26" d="M465.5,94.3c-0.2,0-0.3-0.1-0.5-0.2c-0.3-0.3-0.3-0.7,0-0.9l4.3-4.3c0.3-0.3,0.7-0.3,0.9,0
								c0.3,0.3,0.3,0.7,0,0.9l-4.3,4.3C465.9,94.3,465.7,94.3,465.5,94.3z"/>
						</g>
					</g>
				</g>
				<g>
					<g>
						<g>
							<path class="st26" d="M475,98.6c-0.4,0-0.7-0.3-0.7-0.7v-6.1c0-0.4,0.3-0.7,0.7-0.7c0.4,0,0.7,0.3,0.7,0.7V98
								C475.6,98.3,475.3,98.6,475,98.6z"/>
						</g>
					</g>
				</g>
				<g>
					<g>
						<g>
							<path class="st26" d="M484.6,95c-0.2,0-0.3-0.1-0.5-0.2l-4.3-4.3c-0.3-0.3-0.3-0.7,0-0.9c0.3-0.3,0.7-0.3,0.9,0l4.3,4.3
								c0.3,0.3,0.3,0.7,0,0.9C485,94.9,484.8,95,484.6,95z"/>
						</g>
					</g>
				</g>
				<g>
					<g>
						<g>
							<path class="st26" d="M488.9,85.6h-6.1c-0.4,0-0.7-0.3-0.7-0.7c0-0.4,0.3-0.7,0.7-0.7h6.1c0.4,0,0.7,0.3,0.7,0.7
								C489.6,85.3,489.3,85.6,488.9,85.6z"/>
						</g>
					</g>
				</g>
				<g>
					<g>
						<g>
							<path class="st26" d="M481,80.2c-0.2,0-0.3-0.1-0.5-0.2c-0.3-0.3-0.3-0.7,0-0.9l4.3-4.3c0.3-0.3,0.7-0.3,0.9,0
								c0.3,0.3,0.3,0.7,0,0.9l-4.3,4.3C481.4,80.2,481.2,80.2,481,80.2z"/>
						</g>
					</g>
				</g>
			</g>
		</g>
		<g>
			<g>
				<g>
					<g>
						<g>
							<path class="st3" d="M132.3,260.4c-0.4,0-0.7-0.3-0.7-0.7v-6.1c0-0.4,0.3-0.7,0.7-0.7c0.4,0,0.7,0.3,0.7,0.7v6.1
								C133,260.1,132.7,260.4,132.3,260.4z"/>
						</g>
					</g>
				</g>
			</g>
			<g>
				<g>
					<g>
						<g>
							<path class="st3" d="M127,262.2c-0.2,0-0.3-0.1-0.5-0.2l-4.3-4.3c-0.3-0.3-0.3-0.7,0-0.9c0.3-0.3,0.7-0.3,0.9,0l4.3,4.3
								c0.3,0.3,0.3,0.7,0,0.9C127.3,262.1,127.1,262.2,127,262.2z"/>
						</g>
					</g>
				</g>
			</g>
			<g>
				<g>
					<g>
						<g>
							<path class="st3" d="M124.4,267.3h-6.1c-0.4,0-0.7-0.3-0.7-0.7c0-0.4,0.3-0.7,0.7-0.7h6.1c0.4,0,0.7,0.3,0.7,0.7
								C125.1,267,124.8,267.3,124.4,267.3z"/>
						</g>
					</g>
				</g>
			</g>
			<g>
				<g>
					<g>
						<g>
							<path class="st3" d="M122,277c-0.2,0-0.3-0.1-0.5-0.2c-0.3-0.3-0.3-0.7,0-0.9l4.3-4.3c0.3-0.3,0.7-0.3,0.9,0
								c0.3,0.3,0.3,0.7,0,0.9l-4.3,4.3C122.3,276.9,122.1,277,122,277z"/>
						</g>
					</g>
				</g>
			</g>
			<g>
				<g>
					<g>
						<path class="st3" d="M131.4,281.3c-0.4,0-0.7-0.3-0.7-0.7v-6.1c0-0.4,0.3-0.7,0.7-0.7c0.4,0,0.7,0.3,0.7,0.7v6.1
							C132,281,131.7,281.3,131.4,281.3z"/>
					</g>
				</g>
			</g>
			<g>
				<g>
					<g>
						<path class="st3" d="M141,277.6c-0.2,0-0.3-0.1-0.5-0.2l-4.3-4.3c-0.3-0.3-0.3-0.7,0-0.9c0.3-0.3,0.7-0.3,0.9,0l4.3,4.3
							c0.3,0.3,0.3,0.7,0,0.9C141.4,277.6,141.2,277.6,141,277.6z"/>
					</g>
				</g>
			</g>
			<g>
				<g>
					<g>
						<g>
							<path class="st3" d="M145.3,268.2h-6.1c-0.4,0-0.7-0.3-0.7-0.7c0-0.4,0.3-0.7,0.7-0.7h6.1c0.4,0,0.7,0.3,0.7,0.7
								C146,267.9,145.7,268.2,145.3,268.2z"/>
						</g>
					</g>
				</g>
			</g>
			<g>
				<g>
					<g>
						<g>
							<path class="st3" d="M137.4,262.9c-0.2,0-0.3-0.1-0.5-0.2c-0.3-0.3-0.3-0.7,0-0.9l4.3-4.3c0.3-0.3,0.7-0.3,0.9,0
								c0.3,0.3,0.3,0.7,0,0.9l-4.3,4.3C137.8,262.8,137.6,262.9,137.4,262.9z"/>
						</g>
					</g>
				</g>
			</g>
		</g>
		<g>
			<g>
				<g>
					<g>
						<g>
							<path class="st26" d="M606.6,387.4c-0.4,0-0.7-0.3-0.7-0.7v-6.1c0-0.4,0.3-0.7,0.7-0.7c0.4,0,0.7,0.3,0.7,0.7v6.1
								C607.2,387.1,606.9,387.4,606.6,387.4z"/>
						</g>
					</g>
				</g>
				<g>
					<g>
						<g>
							<path class="st26" d="M601.2,389.3c-0.2,0-0.3-0.1-0.5-0.2l-4.3-4.3c-0.3-0.3-0.3-0.7,0-0.9c0.3-0.3,0.7-0.3,0.9,0l4.3,4.3
								c0.3,0.3,0.3,0.7,0,0.9C601.5,389.2,601.4,389.3,601.2,389.3z"/>
						</g>
					</g>
				</g>
				<g>
					<g>
						<g>
							<path class="st26" d="M598.7,394.4h-6.1c-0.4,0-0.7-0.3-0.7-0.7c0-0.4,0.3-0.7,0.7-0.7h6.1c0.4,0,0.7,0.3,0.7,0.7
								C599.4,394.1,599.1,394.4,598.7,394.4z"/>
						</g>
					</g>
				</g>
				<g>
					<g>
						<g>
							<path class="st26" d="M596.2,404c-0.2,0-0.3-0.1-0.5-0.2c-0.3-0.3-0.3-0.7,0-0.9l4.3-4.3c0.3-0.3,0.7-0.3,0.9,0
								c0.3,0.3,0.3,0.7,0,0.9l-4.3,4.3C596.5,404,596.4,404,596.2,404z"/>
						</g>
					</g>
				</g>
				<g>
					<g>
						<g>
							<path class="st26" d="M605.6,408.3c-0.4,0-0.7-0.3-0.7-0.7v-6.1c0-0.4,0.3-0.7,0.7-0.7c0.4,0,0.7,0.3,0.7,0.7v6.1
								C606.3,408,606,408.3,605.6,408.3z"/>
						</g>
					</g>
				</g>
				<g>
					<g>
						<g>
							<path class="st26" d="M615.3,404.7c-0.2,0-0.3-0.1-0.5-0.2l-4.3-4.3c-0.3-0.3-0.3-0.7,0-0.9c0.3-0.3,0.7-0.3,0.9,0l4.3,4.3
								c0.3,0.3,0.3,0.7,0,0.9C615.6,404.7,615.5,404.7,615.3,404.7z"/>
						</g>
					</g>
				</g>
				<g>
					<g>
						<g>
							<path class="st26" d="M619.6,395.3h-6.1c-0.4,0-0.7-0.3-0.7-0.7c0-0.4,0.3-0.7,0.7-0.7h6.1c0.4,0,0.7,0.3,0.7,0.7
								C620.3,395,620,395.3,619.6,395.3z"/>
						</g>
					</g>
				</g>
				<g>
					<g>
						<g>
							<path class="st26" d="M611.7,390c-0.2,0-0.3-0.1-0.5-0.2c-0.3-0.3-0.3-0.7,0-0.9l4.3-4.3c0.3-0.3,0.7-0.3,0.9,0
								c0.3,0.3,0.3,0.7,0,0.9l-4.3,4.3C612,389.9,611.8,390,611.7,390z"/>
						</g>
					</g>
				</g>
			</g>
		</g>
		<g>
			<g>
				<g>
					<g>
						<path class="st26" d="M225.6,59.1c-2.8,0-5-2.2-5-5c0-2.8,2.2-5,5-5s5,2.2,5,5C230.7,56.8,228.4,59.1,225.6,59.1z M225.6,50.4
							c-2,0-3.7,1.6-3.7,3.7c0,2,1.6,3.7,3.7,3.7c2,0,3.7-1.6,3.7-3.7C229.3,52,227.7,50.4,225.6,50.4z"/>
					</g>
				</g>
			</g>
		</g>
		<g>
			<g>
				<g>
					<g>
						<path class="st26" d="M651.2,108.5c-2.8,0-5-2.2-5-5c0-2.8,2.2-5,5-5c2.8,0,5,2.2,5,5C656.2,106.2,653.9,108.5,651.2,108.5z
							 M651.2,99.8c-2,0-3.7,1.6-3.7,3.7c0,2,1.6,3.7,3.7,3.7c2,0,3.7-1.6,3.7-3.7C654.8,101.4,653.2,99.8,651.2,99.8z"/>
					</g>
				</g>
			</g>
		</g>
		<g>
			<linearGradient id="SVGID_7_" gradientUnits="userSpaceOnUse" x1="566.3549" y1="339.382" x2="610.9894" y2="339.382">
				<stop  offset="0" style="stop-color:#000000"/>
				<stop  offset="0.52" style="stop-color:#323232"/>
				<stop  offset="1" style="stop-color:#646464"/>
			</linearGradient>
			<path class="st27" d="M574.9,294.1l36.1,27.5c0,0-2.1,24.9-18.1,39.4c-16,14.5-26.2,23.7-26.2,23.7l-0.3-39l3.5-9.1
				C575,323,576.7,308.4,574.9,294.1L574.9,294.1z"/>
			<g>
				<path class="st28" d="M611.6,344.9c4,2.3,5.5,7.4,3.2,11.5l-0.2,0.4c-2.3,4-7.4,5.5-11.5,3.2l-5.3-3c-4-2.3-5.5-7.4-3.2-11.5
					l0.2-0.4c2.3-4,7.4-5.5,11.5-3.2L611.6,344.9z"/>
				<g>
					<polygon class="st29" points="548.3,312.1 540.1,326.9 583,349.2 591.2,334.4 					"/>
					<polygon class="st30" points="548.3,312.1 518.1,305 540.1,326.9 					"/>
					<polygon class="st28" points="546.5,315.2 541.9,323.8 584.8,346 589.5,337.5 					"/>
					<polygon class="st31" points="529.7,307.6 518.1,305 526.6,313.3 					"/>
					
						<rect x="585.6" y="337.7" transform="matrix(0.4813 -0.8766 0.8766 0.4813 5.2111 699.9473)" class="st32" width="16.9" height="15.8"/>
					<g>
						
							<rect x="581.4" y="341.9" transform="matrix(0.4815 -0.8765 0.8765 0.4815 4.9943 694.9738)" class="st33" width="16.9" height="2.7"/>
					</g>
					<g>
						
							<rect x="583.9" y="343.3" transform="matrix(0.4811 -0.8767 0.8767 0.4811 5.2339 698.1791)" class="st33" width="16.9" height="2.7"/>
					</g>
				</g>
			</g>
			<linearGradient id="SVGID_8_" gradientUnits="userSpaceOnUse" x1="567.5112" y1="263.334" x2="656.0827" y2="263.334">
				<stop  offset="0" style="stop-color:#4F6DF5"/>
				<stop  offset="0.23" style="stop-color:#4F6DF5"/>
				<stop  offset="0.52" style="stop-color:#4F73F5"/>
				<stop  offset="0.73" style="stop-color:#4F78F5"/>
				<stop  offset="1" style="stop-color:#4F82F5"/>
			</linearGradient>
			<polygon class="st34" points="603.6,205.1 625.4,206.1 638.2,210.6 656.1,230.6 611.7,321.6 569.7,289.9 596.9,223.6 
				567.5,223.6 567.5,207.5 			"/>
			<g>
				<path id="XMLID_655_" class="st11" d="M676.9,160.8c-5.1-7.9-45.1-26.9-59.7-9.9c-16.2,19-39.5,34.3,24,57.2
					C694.7,227.4,687,176.7,676.9,160.8z"/>
				<g id="XMLID_591_">
					<g id="XMLID_592_">
						<g id="XMLID_593_">
							<g id="XMLID_594_">
								<g id="XMLID_596_">
									<path id="XMLID_623_" class="st4" d="M642.3,196.4l-12-4.3c0,0-7.2,18.6-7.2,18.6c0,0-0.5,4.1,4.8,6c5.3,2,8-1.5,8-1.5
										C635.9,215.1,642.3,196.4,642.3,196.4z"/>
									<path id="XMLID_622_" class="st12" d="M639.8,203.3l-12-4.3c0,0-3.1,7.1-3.1,7.1c0,0-0.5,4.1,4.8,6c5.3,2,8-1.5,8-1.5
										C637.5,210.5,639.8,203.3,639.8,203.3z"/>
									<path id="XMLID_621_" class="st13" d="M641,199.8l-12-4.3c0,0-1,2.3-1.9,4.3c-0.1,0.3,3.1,2,3.5,2.2
										c2.8,1.5,5.8,2.2,8.9,2.5C640.2,202.4,641,199.8,641,199.8z"/>
									<path id="XMLID_620_" class="st4" d="M615.9,178.2c-0.1,5,1,10,3.6,14.4c1.5,2.5,3.5,4.7,5.7,6.5c3.7,3,7.6,5,12.3,5.7
										c3.2,0.5,6.5,0.6,9.7,0c5.3-1,10-3.7,13.7-7.5c3.1-3.2,5.5-7,7.3-11.1c1-2.2,1.9-4.5,2.5-6.9c0-0.1,0-0.1,0-0.2
										c2.7-8.4,1.9-17.6-5.1-23.7c-3.6-3.1-8-5.2-12.5-6.7c-4.4-1.5-9.3-2.9-14-2.8c-8.5,0.2-8.8,4.4-12.2,11.8
										c-0.3,0.7-6.6,2.6-6.9,3.3c-0.7,1.7-1.4,3.3-2,5.1"/>
									<g id="XMLID_597_">
										<path id="XMLID_598_" class="st13" d="M671.1,179.5c0,0,1.6-3.1,3-7.2C672.6,176.5,671.1,179.5,671.1,179.5z"/>
									</g>
								</g>
								<path id="XMLID_595_" class="st11" d="M666.4,190.7c0,0,6.1,2.1,12.6-3.9c0,0,3.7-1.8,3.9-7.2c1.1-45-26.3-49-35.2-47.9
									c-21.6,2.7-34.2,23.6-26.7,26.4c7.5,2.8,16.7,2,27.4,6.1c10.8,4.1,18.6,2.6,18.6,2.6s-1.6,3.2-1.7,8.7
									c-0.1,5.5,2.4,12.7,2.4,12.7"/>
							</g>
						</g>
					</g>
				</g>
			</g>
		</g>
		<g>
			<path class="st2" d="M569,290c0,0,0-1.1,0-1.8v-42.3c0-1.6,1.3-2.9,2.9-2.9h61.9c1.6,0,2.9,1.3,2.9,2.9v42.3
				c0,1.6-1.3,2.9-2.9,2.9h-56.1l-8.7,9.1V290z"/>
			<g>
				<line class="st35" x1="627" y1="267" x2="578.8" y2="267.1"/>
				<path class="st36" d="M578.8,268.2c-0.6,0-1.1-0.5-1.1-1.1c0-0.6,0.5-1.1,1.1-1.1l48.3-0.1l0,0c0.6,0,1.1,0.5,1.1,1.1
					c0,0.6-0.5,1.1-1.1,1.1L578.8,268.2L578.8,268.2z"/>
			</g>
			<g>
				<line class="st35" x1="627" y1="275.2" x2="578.8" y2="275.3"/>
				<path class="st36" d="M578.8,276.4c-0.6,0-1.1-0.5-1.1-1.1c0-0.6,0.5-1.1,1.1-1.1l48.3-0.1l0,0c0.6,0,1.1,0.5,1.1,1.1
					c0,0.6-0.5,1.1-1.1,1.1L578.8,276.4L578.8,276.4z"/>
			</g>
			<g>
				<line class="st35" x1="627" y1="258.1" x2="578.8" y2="258.2"/>
				<path class="st36" d="M578.8,259.3c-0.6,0-1.1-0.5-1.1-1.1c0-0.6,0.5-1.1,1.1-1.1L627,257l0,0c0.6,0,1.1,0.5,1.1,1.1
					c0,0.6-0.5,1.1-1.1,1.1L578.8,259.3L578.8,259.3z"/>
			</g>
			<g>
				<path class="st36" d="M666.8,307.6c0,0,0-1.1,0-1.8v-42.3c0-1.6-1.3-2.9-2.9-2.9H602c-1.6,0-2.9,1.3-2.9,2.9v42.3
					c0,1.6,1.3,2.9,2.9,2.9h56.1l8.7,9.1V307.6z"/>
				<path class="st12" d="M672.3,276.9h-9.7c-1,0-1.8-0.8-1.8-1.8v-2.2c0-1,0.8-1.8,1.8-1.8h9.7c1,0,1.8,0.8,1.8,1.8v2.2
					C674.1,276.1,673.3,276.9,672.3,276.9z"/>
				<path class="st12" d="M672.3,283.3h-9.7c-1,0-1.8-0.8-1.8-1.8v-2.2c0-1,0.8-1.8,1.8-1.8h9.7c1,0,1.8,0.8,1.8,1.8v2.2
					C674.1,282.5,673.3,283.3,672.3,283.3z"/>
				<path class="st12" d="M672.3,289.7h-9.7c-1,0-1.8-0.8-1.8-1.8v-2.2c0-1,0.8-1.8,1.8-1.8h9.7c1,0,1.8,0.8,1.8,1.8v2.2
					C674.1,288.9,673.3,289.7,672.3,289.7z"/>
				<path class="st12" d="M672.3,296.1h-9.7c-1,0-1.8-0.8-1.8-1.8v-2.2c0-1,0.8-1.8,1.8-1.8h9.7c1,0,1.8,0.8,1.8,1.8v2.2
					C674.1,295.3,673.3,296.1,672.3,296.1z"/>
				<g>
					<line class="st37" x1="608.8" y1="284.7" x2="657.1" y2="284.7"/>
					<path class="st38" d="M657.1,285.8L657.1,285.8l-48.3-0.1c-0.6,0-1.1-0.5-1.1-1.1c0-0.6,0.5-1.1,1.1-1.1c0,0,0,0,0,0l48.3,0.1
						c0.6,0,1.1,0.5,1.1,1.1C658.2,285.3,657.7,285.8,657.1,285.8z"/>
				</g>
				<g>
					<line class="st37" x1="608.8" y1="292.9" x2="657.1" y2="292.9"/>
					<path class="st38" d="M657.1,294L657.1,294l-48.3-0.1c-0.6,0-1.1-0.5-1.1-1.1c0-0.6,0.5-1.1,1.1-1.1c0,0,0,0,0,0l48.3,0.1
						c0.6,0,1.1,0.5,1.1,1.1C658.2,293.5,657.7,294,657.1,294z"/>
				</g>
				<g>
					<line class="st37" x1="608.8" y1="275.7" x2="657.1" y2="275.8"/>
					<path class="st38" d="M657.1,276.9L657.1,276.9l-48.3-0.1c-0.6,0-1.1-0.5-1.1-1.1c0-0.6,0.5-1.1,1.1-1.1c0,0,0,0,0,0l48.3,0.1
						c0.6,0,1.1,0.5,1.1,1.1C658.2,276.4,657.7,276.9,657.1,276.9z"/>
					<path class="st32" d="M657.1,285.8L657.1,285.8l-48.3-0.1c-0.6,0-1.1-0.5-1.1-1.1c0-0.6,0.5-1.1,1.1-1.1c0,0,0,0,0,0l48.3,0.1
						c0.6,0,1.1,0.5,1.1,1.1C658.2,285.3,657.7,285.8,657.1,285.8z"/>
					<path class="st32" d="M657.1,294L657.1,294l-48.3-0.1c-0.6,0-1.1-0.5-1.1-1.1c0-0.6,0.5-1.1,1.1-1.1c0,0,0,0,0,0l48.3,0.1
						c0.6,0,1.1,0.5,1.1,1.1C658.2,293.5,657.7,294,657.1,294z"/>
					<path class="st32" d="M657.1,276.9L657.1,276.9l-48.3-0.1c-0.6,0-1.1-0.5-1.1-1.1c0-0.6,0.5-1.1,1.1-1.1c0,0,0,0,0,0l48.3,0.1
						c0.6,0,1.1,0.5,1.1,1.1C658.2,276.4,657.7,276.9,657.1,276.9z"/>
				</g>
			</g>
		</g>
	</g>
</g>
</svg>
