<?xml version="1.0" encoding="utf-8"?>
<!-- Generator: Adobe Illustrator 22.0.1, SVG Export Plug-In . SVG Version: 6.00 Build 0)  -->
<svg version="1.1" id="Layer_1" xmlns="http://www.w3.org/2000/svg" xmlns:xlink="http://www.w3.org/1999/xlink" x="0px" y="0px"
	 viewBox="0 0 760 520" style="enable-background:new 0 0 760 520;" xml:space="preserve">
<style type="text/css">
	.st0{fill:#E6FCFC;}
	.st1{fill:#A0D6F2;}
	.st2{fill:#E1FBFC;}
	.st3{fill:none;stroke:#E1FFFF;stroke-miterlimit:10;stroke-dasharray:4;}
	.st4{fill:none;stroke:#E1FFFF;stroke-miterlimit:10;}
	.st5{fill:none;stroke:#E1FFFF;stroke-miterlimit:10;stroke-dasharray:4.1181,4.1181;}
	.st6{fill:none;stroke:#E1FFFF;stroke-miterlimit:10;stroke-dasharray:3.7999,3.7999;}
	.st7{fill:none;stroke:#A0D6F2;stroke-miterlimit:10;}
	.st8{fill:none;}
	.st9{font-family:'Roboto-Regular';}
	.st10{font-size:16.6319px;}
	.st11{letter-spacing:1;}
	.st12{fill:#A5CACC;}
	.st13{fill:#E2A893;}
	.st14{fill:#272525;}
	.st15{fill:url(#SVGID_1_);}
	.st16{fill:url(#SVGID_2_);}
	.st17{fill:#131533;}
	.st18{fill:#E29993;}
	.st19{fill:url(#SVGID_3_);}
	.st20{fill:url(#SVGID_4_);}
	.st21{fill:#4FAFF5;}
</style>
<path class="st0" d="M118.7,85.3c8.1-10.2,18.9-18,31.2-22.4l29.1-10.4l37.8-15.8c16.9-7.1,34.3-13.1,51.9-18.2l21.7-6.2
	c34.8-9.9,71-13.9,107.1-10.9c24.9,2,50.5,7.4,67.1,19.5c0,0,135.4,87.1,176.5,144.7c3.9,5.5,7.9,10.9,12.2,16
	c9.5,11.3,26.9,36.8,32.8,77.1c4.7,32.2,0.5,65-11.3,95.3L639,445.4c-17.3,44.2-59.7,73.9-107.2,74c-0.9,0-1.9,0-2.8,0H266.6
	c0,0-95.4-3.9-133.2-52.6c-2.7-3.5-5.6-6.9-8.7-10.1c-15.6-16.4-62.5-75.2-51-177.6l19-140.2C92.6,139,97.6,111.9,118.7,85.3z"/>
<rect x="181.3" y="43.3" class="st1" width="430.2" height="221.8"/>
<rect x="409.8" y="94.4" class="st2" width="167.8" height="122"/>
<rect x="255.9" y="233.6" class="st3" width="166.3" height="21.5"/>
<g>
	<g>
		<polyline class="st4" points="389.9,213.1 389.9,215.1 387.9,215.1 		"/>
		<line class="st5" x1="383.8" y1="215.1" x2="287" y2="215.1"/>
		<polyline class="st4" points="284.9,215.1 282.9,215.1 282.9,213.1 		"/>
		<line class="st6" x1="282.9" y1="209.3" x2="282.9" y2="158"/>
		<polyline class="st4" points="282.9,156.1 282.9,154.1 284.9,154.1 		"/>
		<line class="st5" x1="289.1" y1="154.1" x2="385.8" y2="154.1"/>
		<polyline class="st4" points="387.9,154.1 389.9,154.1 389.9,156.1 		"/>
		<line class="st6" x1="389.9" y1="159.9" x2="389.9" y2="211.2"/>
	</g>
</g>
<rect x="283.6" y="115.1" class="st2" width="105.6" height="4.7"/>
<rect x="283.6" y="125.5" class="st2" width="105.6" height="4.7"/>
<rect x="283.6" y="135.9" class="st2" width="105.6" height="4.7"/>
<g>
	<rect x="238.9" y="57.2" class="st2" width="310" height="14.1"/>
	<rect x="557.4" y="57.2" class="st2" width="42.5" height="14.1"/>
	<path class="st2" d="M232.1,64.2c0,2.7-2.2,5-5,5c-2.7,0-5-2.2-5-5c0-2.7,2.2-5,5-5C229.8,59.3,232.1,61.5,232.1,64.2z"/>
	<path class="st2" d="M217.9,64.2c0,2.7-2.2,5-5,5c-2.7,0-5-2.2-5-5c0-2.7,2.2-5,5-5C215.7,59.3,217.9,61.5,217.9,64.2z"/>
	<path class="st2" d="M203.7,64.2c0,2.7-2.2,5-5,5c-2.7,0-5-2.2-5-5c0-2.7,2.2-5,5-5C201.5,59.3,203.7,61.5,203.7,64.2z"/>
</g>
<g>
	<line class="st7" x1="642.4" y1="43.3" x2="621.1" y2="43.3"/>
	<line class="st7" x1="631.8" y1="135.9" x2="631.8" y2="43.3"/>
</g>
<g>
	<line class="st7" x1="621.1" y1="265.2" x2="642.4" y2="265.2"/>
	<line class="st7" x1="631.8" y1="172.7" x2="631.8" y2="265.2"/>
</g>
<line class="st7" x1="182.1" y1="32.3" x2="182.1" y2="11"/>
<line class="st7" x1="611.4" y1="32.3" x2="611.4" y2="11"/>
<line class="st7" x1="182.1" y1="21.6" x2="375.1" y2="21.6"/>
<line class="st7" x1="418.5" y1="21.6" x2="611.4" y2="21.6"/>
<rect x="374.8" y="14.7" class="st8" width="43.7" height="15.6"/>
<text transform="matrix(1 0 0 1 380.916 27.3706)" class="st1 st9 st10 st11">123</text>
<rect x="609.9" y="148.9" class="st8" width="43.7" height="15.6"/>
<text transform="matrix(1 0 0 1 621.5771 161.6025)" class="st1 st9 st10 st11">45</text>
<g>
	<polygon class="st12" points="471.9,342.8 464,342.8 461.3,418.8 465.1,418.9 	"/>
	<polygon class="st12" points="392.7,415.5 395.1,422.4 465.1,422.4 465.1,418.9 	"/>
	<polygon class="st12" points="463.7,422.4 488.2,509 485.3,509 457.8,422.4 	"/>
	<polygon class="st12" points="399.7,422.4 375.1,509 378.1,509 405.6,422.4 	"/>
</g>
<rect x="140.2" y="113.8" class="st12" width="107" height="61"/>
<rect x="307.4" y="275.3" class="st12" width="166.3" height="21.5"/>
<g>
	<path class="st13" d="M142.5,178.3c4.2-6.9-1.9-3.8-1.9-3.8s-5.6-6.8-7.5-5.8c-2.5,1.4,4.4,12.3,4.4,12.3L142.5,178.3z"/>
	<g>
		<path class="st14" d="M205.1,180.8c0,0-2.2-8.6-15.2-10.4c-12.2-1.7-25.1,3.2-23.5,32.4c0.3,6.4,4.5,12.1,10.6,14.3l3.4,1.2
			c2.7,1,5.7-0.8,6-3.7l0.4-3l6.2-11.5L205.1,180.8z"/>
		<path class="st13" d="M244.1,178.5c-3.8-7.1,2.2-3.7,2.2-3.7s6.1-6.4,7.8-5.3c2.4,1.6-5.2,12-5.2,12L244.1,178.5z"/>
		<linearGradient id="SVGID_1_" gradientUnits="userSpaceOnUse" x1="135.4723" y1="235.1401" x2="248.9273" y2="235.1401">
			<stop  offset="0" style="stop-color:#4F6DF5"/>
			<stop  offset="0.23" style="stop-color:#4F6DF5"/>
			<stop  offset="0.52" style="stop-color:#4F73F5"/>
			<stop  offset="0.73" style="stop-color:#4F78F5"/>
			<stop  offset="1" style="stop-color:#4F82F5"/>
		</linearGradient>
		<path class="st15" d="M248.9,181.5l-4.8-3l-5.8,30c-0.4,2-1.7,3.7-3.6,4.5l-18,8c-1,0.5-2.1,0.7-3.3,0.7l-44.8-0.4
			c-0.8,0-1.6-0.1-2.3-0.4l-14.4-5c-2.2-0.8-3.8-2.7-4.2-5l-5.1-32.6l-5,2.7l-2,34c-0.2,3.7,1.5,7.2,4.6,9.3l22.2,15.1
			c1.8,1.3,3.1,3.2,3.5,5.4l7.9,47.3h37.5l6.8-48.9c0.4-3,2.3-5.6,4.9-7l19.4-10.2c3.3-1.7,5.3-5,5.5-8.7L248.9,181.5z"/>
		<linearGradient id="SVGID_2_" gradientUnits="userSpaceOnUse" x1="163.1098" y1="369.024" x2="244.8689" y2="369.024">
			<stop  offset="0" style="stop-color:#000000"/>
			<stop  offset="0.52" style="stop-color:#323232"/>
			<stop  offset="1" style="stop-color:#646464"/>
		</linearGradient>
		<path class="st16" d="M173.6,292c0,0-10.7,7-10.5,26.4c0.3,24.6,4.2,127.6,4.2,127.6h9.4l15.6-130.7l27.9,18.7
			c2.7,1.8,4.4,4.7,4.7,7.9l6.5,65.2h8.1l5.1-69.2c0.3-4.6-1.2-9.1-4.2-12.5L211.1,292"/>
		<path class="st13" d="M205.9,221.6l-8.3,12.9c-1.7,2.7-5.6,2.7-7.3,0l-8.3-12.9H205.9z"/>
		<path class="st13" d="M186.7,211.6H202l3.2-8.8l0,0c1.7-1,2.3-3.1,1.4-4.9l-0.3-0.6l-1.2-16.6l-11.3,3.2c-2.2,0.6-3.8,2.5-3.9,4.8
			l-0.2,3c-0.1,0.8-0.6,1.4-1.4,1.5l0,0c-0.4,0.1-0.8-0.1-1-0.4c-0.8-1.2-2.7-3.7-4.1-2.5c-1.9,1.6-0.5,4.3,1.8,6.1
			C184.8,196.3,187.8,203,186.7,211.6z"/>
		<rect x="188.2" y="210.8" class="st13" width="9.5" height="16.9"/>
		<path class="st17" d="M231.6,407.2v12h1.8l1.3-5l3.1,5h17.6c0,0-10.6-1.7-15.7-12H231.6z"/>
		<path class="st17" d="M167.3,446v12h1.8l1.3-5l3.1,5h17.6c0,0-10.6-1.7-15.7-12H167.3z"/>
		<polygon class="st18" points="188.2,214.5 197.8,212.5 197.8,211.6 188.2,211.6 		"/>
	</g>
</g>
<g>
	<path class="st14" d="M529.7,240.2l7.7,19.5l11.3,12.3l10.4-14.7c2.2-3.1,3.7-6.7,4.2-10.5l0.9-6.2c0.1-1-0.9-1.6-1.7-1.1l0,0
		c-0.5,0.3-1.1,0.3-1.5-0.1l-13.5-12.5c-0.5-0.4-1.2-0.1-1.2,0.6l0,0c0.1,1.3-1.1,2.4-2.4,2.1l-14.8-3.5c-1.3-0.3-2.3,1.2-1.5,2.3
		l0.8,1c0.7,0.9,0.2,2.3-0.9,2.5l-3.6,0.8c-1.5,0.3-1.9,2.3-0.6,3.1L529.7,240.2z"/>
	<path class="st13" d="M575.2,192.6c-6.1-5.3,0.7-4.3,0.7-4.3s3.4-8.2,5.4-7.8c2.8,0.5-0.6,13.1-0.6,13.1L575.2,192.6z"/>
	<path class="st13" d="M452.5,297.8l-2.8,4.9l39.3,21.2c2.4,1.3,5.4,1.4,7.8,0.1l26.5-13.4l10.6,47.8l54.9-3.7l-6.9-66.1l-1.2-94.9
		l-5.5-1L559,275.9l-41.3,12l-23,20.7c-1.4,1.2-3.3,1.6-5,1.1L452.5,297.8z"/>
	<path class="st13" d="M546.5,277.6l-17.8-4.3c-1.9-0.5-3.2-2.3-3.1-4.2l0.6-7.2c0.1-0.7-0.4-1.3-1.1-1.5l-0.3-0.1
		c-1.3-0.3-2-1.7-1.6-2.9l6.4-17.2l14.3,8.3c1.5,0.9,2.2,2.6,1.7,4.3l-1.1,4c-0.2,0.5,0.2,1.1,0.7,1.2l0.2,0.1
		c0.7,0.2,1.3-0.1,1.7-0.7c1-1.4,3-3.8,4.6-2c1.3,1.5,0.3,5.6-1.8,7.3c-0.5,0.4-0.9,1-0.9,1.7l-0.6,7.6L546.5,277.6z"/>
	
		<rect x="535.4" y="271.9" transform="matrix(0.972 -0.2348 0.2348 0.972 -50.5785 134.9095)" class="st13" width="11.5" height="15.8"/>
	<path class="st17" d="M536.7,502.6l0,1.4c0,1.8-1.4,3.2-3.2,3.3l-20.2,0.3c-0.7,0-1-0.9-0.5-1.3c6.8-5.2,15.6-5.2,15.6-5.2
		L536.7,502.6z"/>
	<path class="st17" d="M609.1,501.6l0,1.2c0,1.9-1.5,3.4-3.3,3.4l-18.7,0.3c-1.1,0-1.6-1.4-0.7-2.1c6.6-4.4,14.5-4.4,14.5-4.4
		L609.1,501.6z"/>
	<linearGradient id="SVGID_3_" gradientUnits="userSpaceOnUse" x1="504.6753" y1="308.7204" x2="588.8961" y2="308.7204">
		<stop  offset="0" style="stop-color:#4F6DF5"/>
		<stop  offset="0.23" style="stop-color:#4F6DF5"/>
		<stop  offset="0.52" style="stop-color:#4F73F5"/>
		<stop  offset="0.73" style="stop-color:#4F82F5"/>
		<stop  offset="1" style="stop-color:#4FA0F5"/>
	</linearGradient>
	<path class="st19" d="M504.7,299.6l9.5,14.8l9.2-3.9l10.6,47.8l54.9-3.7l-6.9-66.1l-0.3-24.6l-19.4-4.8l-2.6,13.4
		c-0.4,2.1-1.9,3.7-3.9,4.3l-36.1,10.6c-1.2,0.4-2.3,1-3.3,1.8L504.7,299.6z"/>
	<polygon class="st18" points="546.7,278.2 534.5,276.9 533.9,274.5 546.5,277.6 	"/>
	<linearGradient id="SVGID_4_" gradientUnits="userSpaceOnUse" x1="528.4835" y1="428.6286" x2="609.1379" y2="428.6286">
		<stop  offset="0" style="stop-color:#000000"/>
		<stop  offset="0.52" style="stop-color:#323232"/>
		<stop  offset="1" style="stop-color:#646464"/>
	</linearGradient>
	<polygon class="st20" points="528.5,501.1 536.7,502.6 562,372.4 600.9,500.1 609.1,501.6 588.9,354.7 588.9,354.7 534,358.4 	"/>
</g>
<polygon class="st21" points="143.5,507.9 143.5,457 205.9,457 205.9,419.2 265.7,419.2 265.7,387.3 334.2,387.3 334.2,507.9 "/>
<path class="st13" d="M452.5,297.8c-0.2-8-3.7-2.2-3.7-2.2s-8.5-2.7-9.5-0.9c-1.4,2.5,10.5,7.9,10.5,7.9L452.5,297.8z"/>
</svg>
